SplineFontDB: 3.2
FontName: LeerTales
FullName: LeerTales
FamilyName: LeerTales
Weight: Light
Copyright: Copyright (c) 2020, Lars Rune Praestmark
UComments: "2020-11-11: Created with FontForge (http://fontforge.org)"
Version: 001.000
ItalicAngle: 0
UnderlinePosition: -100
UnderlineWidth: 50
Ascent: 550
Descent: 450
InvalidEm: 0
LayerCount: 2
Layer: 0 0 "Back" 1
Layer: 1 0 "Fore" 0
XUID: [1021 563 -1490313021 9081883]
StyleMap: 0x0000
FSType: 0
OS2Version: 0
OS2_WeightWidthSlopeOnly: 0
OS2_UseTypoMetrics: 1
CreationTime: 1605130957
ModificationTime: 1630618488
PfmFamily: 17
TTFWeight: 200
TTFWidth: 5
LineGap: 90
VLineGap: 0
OS2TypoAscent: 0
OS2TypoAOffset: 1
OS2TypoDescent: 0
OS2TypoDOffset: 1
OS2TypoLinegap: 90
OS2WinAscent: 0
OS2WinAOffset: 1
OS2WinDescent: 0
OS2WinDOffset: 1
HheadAscent: 0
HheadAOffset: 1
HheadDescent: 0
HheadDOffset: 1
OS2Vendor: 'PfEd'
Lookup: 260 0 0 "dicritic_bases" { "dicritic_bases-1"  } ['    ' ('DFLT' <'dflt' > 'latn' <'dflt' > ) ]
Lookup: 258 0 0 "'kern' Horizontal Kerning in Latin lookup 1" { "'kern' Horizontal Kerning in Latin lookup 1-1" [100,0,2] } ['kern' ('DFLT' <'dflt' > 'latn' <'dflt' > ) ]
MarkAttachClasses: 1
DEI: 91125
KernClass2: 48 46 "'kern' Horizontal Kerning in Latin lookup 1-1"
 40 exclam four H M N bracketright d i l bar
 20 quotedbl quotesingle
 7 percent
 23 parenleft one braceleft
 14 parenright J U
 20 plus e o p ae oslash
 5 comma
 6 hyphen
 6 period
 9 slash V W
 25 zero two three five D O S
 9 six eight
 5 seven
 8 nine j y
 19 colon semicolon m n
 10 less c x z
 5 equal
 7 greater
 8 question
 1 A
 1 B
 1 C
 4 E AE
 1 F
 3 G u
 1 I
 1 K
 1 L
 1 P
 11 Q backslash
 1 R
 1 T
 1 X
 1 Y
 1 Z
 11 bracketleft
 7 a aring
 1 b
 3 f t
 3 g q
 1 h
 1 k
 1 r
 1 s
 3 v w
 10 braceright
 5 Aring
 46 exclam B D H K L M N P R bracketleft h k l bar
 20 quotedbl quotesingle
 7 percent
 11 parenleft U
 21 parenright braceright
 17 plus c e o oslash
 5 comma
 6 hyphen
 6 period
 5 slash
 21 zero C E G O Q Oslash
 3 one
 5 two S

StartChar: o
Encoding: 111 111 0
Width: 240
VWidth: 0
Flags: HW
HStem: -2 26.4004<73.8876 166.008> 175.6 27.4004<73.9633 151.211>
VStem: 12.9902 25.9502<61.8722 141.72> 200.04 27.9609<56.1387 142.574>
AnchorPoint: "top" 125 203 basechar 0
AnchorPoint: "bottom" 125 -0 basechar 0
LayerCount: 2
Back
SplineSet
29.990234375 100 m 0
 29.990234375 51 68.990234375 16 120.990234375 16 c 0
 172.990234375 16 208.990234375 51 208.990234375 100 c 0
 208.990234375 149 173.990234375 184 121.990234375 184 c 0
 69.990234375 184 29.990234375 149 29.990234375 100 c 0
116.990234375 -2 m 0
 48.990234375 -2 12.990234375 50 12.990234375 100 c 0
 12.990234375 150 49.990234375 203 121.990234375 203 c 0
 193.990234375 203 228.006835938 159 226.990234375 96 c 0
 226.022460938 36.0078125 184.990234375 -2 116.990234375 -2 c 0
EndSplineSet
Fore
SplineSet
38.9404296875 100 m 4
 38.9404296875 55.900390625 74.0400390625 24.400390625 120.83984375 24.400390625 c 4
 167.640625 24.400390625 200.040039062 55.900390625 200.040039062 100 c 4
 200.040039062 116.024414062 195.880859375 130.384765625 188.33984375 142.17578125 c 4
 144.240234375 172.952148438 l 4
 137.237304688 174.686523438 129.7109375 175.599609375 121.740234375 175.599609375 c 4
 74.9404296875 175.599609375 38.9404296875 144.099609375 38.9404296875 100 c 4
116.990234375 -2 m 4
 91.3798828125 -2 70.30859375 5.3759765625 53.990234375 17.2431640625 c 4
 18.9443359375 65 l 4
 14.9921875 76.3056640625 12.990234375 88.2080078125 12.990234375 100 c 4
 12.990234375 150 49.990234375 203 121.990234375 203 c 4
 193.990234375 203 228.000976562 156 228.000976562 98 c 4
 228.000976562 38 184.990234375 -2 116.990234375 -2 c 4
EndSplineSet
EndChar

StartChar: n
Encoding: 110 110 1
Width: 240
VWidth: 0
Flags: HW
HStem: -3 21G<209.5 216.5> 175.6 27.4004<73.9633 151.211>
VStem: 10 28<-1.99921 141.654> 200.04 27.9609<-2.9873 141.621>
AnchorPoint: "top" 122 202 basechar 0
LayerCount: 2
Fore
SplineSet
12.990234375 100 m 0
 12.990234375 150 49.990234375 203 121.990234375 203 c 0
 193.990234375 203 228.000976562 156 228.000976562 98 c 3
 228.000976562 38 227 10 227 4 c 0
 227 -2 220 -3 213 -3 c 0
 206 -3 199 -2 199 14 c 0
 199 30 200.040039062 55.900390625 200.040039062 100 c 3
 200.040039062 116.024414062 195.880859375 130.384765625 188.33984375 142.17578125 c 0
 144.240234375 172.952148438 l 0
 137.237304688 174.686523438 129.7109375 175.599609375 121.740234375 175.599609375 c 0
 74.9404296875 175.599609375 38.9404296875 144.099609375 38.9404296875 100 c 0
 38.9404296875 55.900390625 38 11 38 5 c 0
 38 -1 31 -2 24 -2 c 0
 17 -2 10 -1 10 15 c 0
 10 31 12.990234375 88.2080078125 12.990234375 100 c 0
EndSplineSet
EndChar

StartChar: l
Encoding: 108 108 2
Width: 100
VWidth: 0
Flags: W
HStem: 456 20G<33.5 52.2857>
VStem: 32 36<-6.44795 201.804> 34.9902 25.9502<0.313214 448>
LayerCount: 2
Back
SplineSet
14.8447265625 165 m 1
 14.47265625 227.140625 14.6513671875 399.755859375 14 476 c 1
 41 448 l 1
 41.6728515625 377.373046875 41.9453125 232.099609375 42 175 c 1
 37 167.635742188 16.09375 139.987304688 14.8447265625 165 c 1
38.4453125 100 m 0
 38.4453125 55.900390625 73.544921875 24.400390625 120.344726562 24.400390625 c 0
 167.145507812 24.400390625 199.543945312 55.900390625 199.543945312 100 c 0
 199.543945312 116.024414062 195.385742188 130.384765625 187.844726562 142.17578125 c 0
 143.745117188 172.952148438 l 0
 136.7421875 174.686523438 129.215820312 175.599609375 121.245117188 175.599609375 c 0
 74.4453125 175.599609375 38.4453125 144.099609375 38.4453125 100 c 0
116.495117188 -2 m 0
 90.884765625 -2 69.8134765625 5.3759765625 53.4951171875 17.2431640625 c 0
 18.44921875 65 l 0
 14.4970703125 76.3056640625 12.4951171875 88.2080078125 12.4951171875 100 c 0
 12.4951171875 117.794921875 17.181640625 135.969726562 26.46484375 152 c 0
 46 176.140625 l 0
 64.025390625 192.370117188 89.2509765625 203 121.495117188 203 c 0
 193.495117188 203 227.504882812 156 227.504882812 98 c 0
 227.504882812 38 184.495117188 -2 116.495117188 -2 c 0
EndSplineSet
Fore
SplineSet
60.9404296875 100 m 4xa0
 60.9404296875 55.900390625 68 6 68 0 c 4
 68 -6 61 -7 54 -7 c 4
 47 -7 32 -1 32 15 c 4xc0
 32 31 34.990234375 88.2080078125 34.990234375 100 c 4
 34.990234375 150 34 359 33 476 c 5
 60 448 l 21
 61 343 60.9404296875 144.099609375 60.9404296875 100 c 4xa0
EndSplineSet
Validated: 33
EndChar

StartChar: t
Encoding: 116 116 3
Width: 149
VWidth: 0
Flags: W
VStem: 52.5459 36<-6.44795 97.9288> 55.5361 25.9502<0.313214 345.922 377.002 436>
LayerCount: 2
Back
SplineSet
9.3623046875 347 m 1
 9.3623046875 378 l 1
 69.3623046875 369 l 25
 129.362304688 381 l 1
 129.362304688 345 l 1
 70.3623046875 352 l 1
 9.3623046875 347 l 1
56.3583984375 338.03515625 m 0
 56.3583984375 343.013671875 64.376953125 346 70.3623046875 346 c 8
 75.3623046875 346 82.9677734375 345.291992188 83 338 c 0
 83.3330078125 262.791015625 83.751953125 131.077148438 83.751953125 100 c 0
 83.751953125 55.900390625 83.765625 6 83.765625 0 c 0
 83.765625 -6 76.765625 -7 69.765625 -7 c 0
 62.765625 -7 54.8115234375 -1 54.8115234375 15 c 0
 54.8115234375 31 57.8017578125 88.2080078125 57.8017578125 100 c 0
 57.8017578125 132.673828125 56.9384765625 262.362304688 56.3583984375 338.03515625 c 0
56.2373046875 384.03515625 m 0
 56.02734375 410.400390625 84.56640625 454.74609375 114.538085938 460.03515625 c 0
 131.538085938 463.03515625 135.899414062 435.51171875 121.538085938 433.03515625 c 0
 92.5380859375 428.03515625 81.8759765625 397.208984375 81.9853515625 380.03515625 c 0
 82.0322265625 372.700195312 74.583984375 374.03515625 69.583984375 374.03515625 c 24
 64.583984375 374.03515625 56.2958984375 376.668945312 56.2373046875 384.03515625 c 0
EndSplineSet
Fore
SplineSet
8.9541015625 347 m 5x00
 8.9541015625 378 l 5
 68.9541015625 369 l 29
 128.954101562 381 l 5
 128.954101562 345 l 5
 69.9541015625 352 l 5
 8.9541015625 347 l 5x00
55.6533203125 385 m 4
 55.443359375 411.365234375 55.22265625 438.051757812 55 464 c 5
 82 436 l 5
 82.033203125 432.498046875 82.0458984375 429.021484375 82.0458984375 425.5546875 c 4
 82.0458984375 415.040039062 81.9306640625 404.619140625 81.9306640625 393.875976562 c 4
 81.9306640625 391.271484375 81.9375 388.6484375 81.9541015625 385.958007812 c 4
 81.9541015625 379.986328125 73.9423828125 377 68.9541015625 377 c 4
 63.9541015625 377 55.7119140625 377.633789062 55.6533203125 385 c 4
55.5361328125 100 m 4x40
 55.5361328125 132.673828125 56.5302734375 262.362304688 55.9501953125 338.03515625 c 4
 55.9501953125 343.013671875 63.96875 346 69.9541015625 346 c 12
 74.9541015625 346 82.5595703125 345.291992188 82.591796875 338 c 4
 82.9248046875 262.791015625 81.486328125 131.077148438 81.486328125 100 c 4x40
 81.486328125 55.900390625 88.5458984375 6 88.5458984375 0 c 0
 88.5458984375 -6 81.5458984375 -7 74.5458984375 -7 c 0
 67.5458984375 -7 52.5458984375 -1 52.5458984375 15 c 0x80
 52.5458984375 31 55.5361328125 88.2080078125 55.5361328125 100 c 4x40
EndSplineSet
Validated: 33
EndChar

StartChar: e
Encoding: 101 101 4
Width: 240
VWidth: 0
Flags: W
HStem: -2 26.4004<73.8876 177.004> 97 22<46.2813 193.507> 175.6 27.4004<73.9633 151.211>
VStem: 12.9902 25.9502<61.8722 141.72> 200 28<96.8403 141.621>
AnchorPoint: "top" 135 204 basechar 0
AnchorPoint: "bottom" 117 -0 basechar 0
LayerCount: 2
Fore
SplineSet
48 119 m 1
 192 119 l 1
 193.867420883 111.666666672 195.373445561 104.333333329 192 97 c 1
 48 97 l 1
 45.3333333359 104.333333345 45.3333333307 111.666666655 48 119 c 1
161.999998265 33.3413602833 m 0
 169.840057301 37.3316406551 192.039582478 19.1188604815 178.000003096 11.6142444624 c 0
 161.255413869 2.66371189055 140.586952246 -2 116.990234375 -2 c 0
 91.3798828125 -2 70.30859375 5.3759765625 53.990234375 17.2431640625 c 0
 18.9443359375 65 l 0
 14.9921875 76.3056640625 12.990234375 88.2080078125 12.990234375 100 c 0
 12.990234375 150 49.990234375 203 121.990234375 203 c 0
 193.990234375 203 228 156 228 98 c 1
 220 93 205.252431205 95.8984166501 200 100 c 1
 200 116.024414062 195.880859375 130.384765625 188.33984375 142.17578125 c 0
 144.240234375 172.952148438 l 0
 137.237304688 174.686523438 129.7109375 175.599609375 121.740234375 175.599609375 c 0
 74.9404296875 175.599609375 38.9404296875 144.099609375 38.9404296875 100 c 0
 38.9404296875 55.900390625 74.0400390625 24.400390625 120.83984375 24.400390625 c 0
 136.367805751 24.400390625 150.365316681 27.4197669197 161.999998265 33.3413602833 c 0
EndSplineSet
EndChar

StartChar: s
Encoding: 115 115 5
Width: 240
VWidth: 0
Flags: HW
HStem: -2 26.4004<33.1866 162.963> 97 22<46.2621 193.488> 177 24.4004<79.8605 214.948>
VStem: 12.9707 25.9502<95.5321 142.152> 198.98 27.9609<60.1321 114.485>
AnchorPoint: "top" 124 202 basechar 0
LayerCount: 2
Back
SplineSet
47.98046875 119 m 1
 191.98046875 119 l 1
 193.848632812 111.666992188 195.354492188 104.333007812 191.98046875 97 c 1
 47.98046875 97 l 1
 45.314453125 104.333007812 45.314453125 111.666992188 47.98046875 119 c 1
161.98046875 33.341796875 m 0
 150.345703125 27.419921875 136.348632812 24.400390625 120.8203125 24.400390625 c 0
 74.0205078125 24.400390625 38.9208984375 55.900390625 38.9208984375 100 c 0
 38.9208984375 144.099609375 74.9208984375 175.599609375 121.720703125 175.599609375 c 0
 129.69140625 175.599609375 137.217773438 174.686523438 144.220703125 172.952148438 c 0
 188.3203125 142.17578125 l 0
 195.861328125 130.384765625 199.98046875 116.024414062 199.98046875 100 c 1
 205.233398438 95.8984375 219.98046875 93 227.98046875 98 c 1
 227.98046875 156 193.970703125 203 121.970703125 203 c 0
 49.970703125 203 12.970703125 150 12.970703125 100 c 0
 12.970703125 88.2080078125 14.97265625 76.3056640625 18.9248046875 65 c 0
 53.970703125 17.2431640625 l 0
 70.2890625 5.3759765625 91.3603515625 -2 116.970703125 -2 c 0
 140.567382812 -2 161.236328125 2.6640625 177.98046875 11.6142578125 c 0
 192.020507812 19.119140625 169.821289062 37.33203125 161.98046875 33.341796875 c 0
EndSplineSet
Fore
SplineSet
47.98046875 119 m 1
 191.98046875 119 l 1
 193.848632812 111.666992188 195.354492188 104.333007812 191.98046875 97 c 1
 47.98046875 97 l 1
 45.314453125 104.333007812 45.314453125 111.666992188 47.98046875 119 c 1
226.94140625 108 m 1
 227.335768724 83.3301068972 221.384976995 61.5411777031 210.130994756 44.0000022572 c 0
 186.734576606 19.0000015602 l 0
 168.564600105 5.57560769394 144.871165079 -2 116.970703125 -2 c 0
 91.3603515625 -2 67.98046875 -1 35.98046875 0 c 1
 30.185546875 8.337890625 28.4892578125 16.6728515625 35.98046875 25 c 9
 68.98046875 26 102.655273438 24.400390625 120.8203125 24.400390625 c 0
 167.62109375 24.400390625 198.98046875 62 198.98046875 110 c 1
 199.512695312 117.981445312 228.903320312 117.189453125 226.94140625 108 c 1
122 177 m 0
 106.20703125 177 91.64453125 173.526367188 79.279296875 167.229492188 c 0
 52.0000008702 142.914904305 l 0
 43.6849876907 131.285387249 38.9208984375 117.042551303 38.9208984375 101 c 1
 36.921875 92.0888671875 12.5009765625 93.45703125 12.970703125 101 c 1
 12.970703125 151 50.259765625 201.400390625 122.259765625 201.400390625 c 0
 146.018554688 201.400390625 176.259765625 200.400390625 211.259765625 200.400390625 c 17
 218.369140625 192.067382812 217.162109375 183.733398438 212.259765625 175.400390625 c 9
 177.259765625 176.400390625 129.970703125 177 122 177 c 0
EndSplineSet
EndChar

StartChar: a
Encoding: 97 97 6
Width: 250
VWidth: 0
Flags: HW
HStem: -6 27.4004<84.7474 161.995> 0 21G<214.407 227.407> 94 22<40.461 187.687> 175 26.4004<26.2149 160.465>
VStem: 7.95801 28<55.3788 100.16> 197.018 25.9502<55.2803 135.481>
AnchorPoint: "top" 122 202 basechar 0
AnchorPoint: "bottom" 212 0 basechar 0
LayerCount: 2
Back
SplineSet
10.2138671875 1 m 1
 9.3994140625 6.3125 8.990234375 11.6674379825 8.990234375 17 c 0
 8.990234375 67 46.259765625 116.400390625 118.259765625 116.400390625 c 0
 190.259765625 116.400390625 124.259765625 116.400390625 162.259765625 116.400390625 c 1
 163.999023438 108.067382812 166.147460938 101.733398438 161.259765625 93.400390625 c 9
 144 94 125.970703125 94 118 94 c 0
 71.2001953125 94 34.9404296875 61.099609375 34.9404296875 17 c 0
 34.9404296875 11.470572164 35.4921875 6.123046875 36.5498046875 1 c 1
 29.3037109375 -2.5439453125 15 0 10.2138671875 1 c 1
253.958007812 100 m 0
 253.958007812 150 290.958007812 203 362.958007812 203 c 0
 434.958007812 203 468.96875 156 468.96875 98 c 3
 468.96875 38 467.967773438 10 467.967773438 4 c 0
 467.967773438 -2 460.967773438 -3 453.967773438 -3 c 0
 446.967773438 -3 439.967773438 -2 439.967773438 14 c 0
 439.967773438 30 441.0078125 55.900390625 441.0078125 100 c 3
 441.0078125 116.024414062 436.848632812 130.384765625 429.307617188 142.17578125 c 0
 385.208007812 172.952148438 l 0
 378.205078125 174.686523438 370.678710938 175.599609375 362.708007812 175.599609375 c 0
 315.908203125 175.599609375 279.908203125 144.099609375 279.908203125 100 c 0
 279.908203125 55.900390625 278.967773438 11 278.967773438 5 c 0
 278.967773438 -1 271.967773438 -2 264.967773438 -2 c 0
 257.967773438 -2 250.967773438 -1 250.967773438 15 c 0
 250.967773438 31 253.958007812 88.2080078125 253.958007812 100 c 0
284.887695312 119 m 5
 428.887695312 119 l 5
 430.755859375 111.666992188 432.26171875 104.333007812 428.887695312 97 c 5
 284.887695312 97 l 5
 282.221679688 104.333007812 282.221679688 111.666992188 284.887695312 119 c 5
463.848632812 108 m 1
 464.243164062 83.330078125 458.29296875 61.541015625 447.038085938 44 c 0
 423.642578125 19 l 0
 405.471679688 5.5751953125 381.778320312 -2 353.877929688 -2 c 0
 328.267578125 -2 304.887695312 -1 272.887695312 0 c 1
 267.092773438 8.337890625 265.396484375 16.6728515625 272.887695312 25 c 9
 305.887695312 26 339.5625 24.400390625 357.727539062 24.400390625 c 0
 404.528320312 24.400390625 435.887695312 62 435.887695312 110 c 1
 436.419921875 117.981445312 465.810546875 117.189453125 463.848632812 108 c 1
358.627929688 175.599609375 m 0
 342.834960938 175.599609375 328.272460938 172.125976562 315.907226562 165.829101562 c 0
 288.907226562 142.915039062 l 0
 280.592773438 131.28515625 275.828125 117.04296875 275.828125 101 c 1
 273.829101562 92.0888671875 249.408203125 93.45703125 249.877929688 101 c 1
 249.877929688 151 286.887695312 200 358.887695312 200 c 0
 382.646484375 200 412.887695312 199 447.887695312 199 c 17
 454.997070312 190.666992188 453.790039062 182.333007812 448.887695312 174 c 9
 413.887695312 175 366.598632812 175.599609375 358.627929688 175.599609375 c 0
EndSplineSet
Fore
SplineSet
48 22 m 1
 192 22 l 1
 193.868164062 14.6669921875 195.374023438 7.3330078125 192 0 c 1
 48 0 l 1
 45.333984375 7.3330078125 45.333984375 14.6669921875 48 22 c 1
10.2138671875 1 m 1
 9.3994140625 6.3125 8.990234375 11.6674379825 8.990234375 17 c 0
 8.990234375 67 46.259765625 116.400390625 118.259765625 116.400390625 c 0
 190.259765625 116.400390625 149 116 187 116 c 1
 188.739257812 107.666992188 190.887695312 101.333007812 186 93 c 9
 168.740234375 93.599609375 125.970703125 94 118 94 c 0
 71.2001953125 94 34.9404296875 61.099609375 34.9404296875 17 c 0
 34.9404296875 11.470572164 35.4921875 6.123046875 36.5498046875 1 c 1
 29.3037109375 -2.5439453125 15 0 10.2138671875 1 c 1
197.017578125 97 m 1
 197.017578125 141.099609375 160.767578125 175 113.967773438 175 c 0
 98.439453125 175 61 176 29 175 c 1
 24.26953125 183.484375 23.091796875 188.856445312 29 200 c 1
 62 200 94.220703125 201.400390625 117.817382812 201.400390625 c 0
 119.219208982 201.400390625 120.613561293 201.37178882 121.999997686 201.315172429 c 0
 127.816889401 201.077634365 133.4944387 200.346960793 138.999997824 199.166520028 c 0
 187.150400925 188.842646032 222.145507812 144.116686908 222.145507812 94 c 0
 222.145507812 44 222 0 222 0 c 1
 203 0 l 0
 197.64453125 11.6474609375 197 42 197 42 c 2
 197 42 197.017578125 52.900390625 197.017578125 97 c 1
EndSplineSet
EndChar

StartChar: d
Encoding: 100 100 7
Width: 240
VWidth: 0
Flags: W
HStem: -2 26.4004<73.3973 165.518> 175.6 27.4004<73.473 150.72> 456 20G<194.326 213.286>
VStem: 12.5 25.9502<61.8722 141.72> 199.549 27.9609<56.1387 142.574 179.224 448>
AnchorPoint: "top" 114 399 basechar 0
AnchorPoint: "bottom" 116.5 -2 basechar 0
LayerCount: 2
Back
SplineSet
-190 476 m 1
 322 476 l 1
 319 448 l 1
 -193 448 l 1
 -190 476 l 1
14.8447265625 165 m 1
 14.47265625 227.140625 14.6513671875 399.755859375 14 476 c 1
 41 448 l 1
 41.6728515625 377.373046875 41.9453125 232.099609375 42 175 c 1
 37 167.635742188 16.09375 139.987304688 14.8447265625 165 c 1
38.4453125 100 m 0
 38.4453125 55.900390625 73.544921875 24.400390625 120.344726562 24.400390625 c 0
 167.145507812 24.400390625 199.543945312 55.900390625 199.543945312 100 c 0
 199.543945312 116.024414062 195.385742188 130.384765625 187.844726562 142.17578125 c 0
 143.745117188 172.952148438 l 0
 136.7421875 174.686523438 129.215820312 175.599609375 121.245117188 175.599609375 c 0
 74.4453125 175.599609375 38.4453125 144.099609375 38.4453125 100 c 0
116.495117188 -2 m 0
 90.884765625 -2 69.8134765625 5.3759765625 53.4951171875 17.2431640625 c 0
 18.44921875 65 l 0
 14.4970703125 76.3056640625 12.4951171875 88.2080078125 12.4951171875 100 c 0
 12.4951171875 117.794921875 17.181640625 135.969726562 26.46484375 152 c 0
 46 176.140625 l 0
 64.025390625 192.370117188 89.2509765625 203 121.495117188 203 c 0
 193.495117188 203 227.504882812 156 227.504882812 98 c 0
 227.504882812 38 184.495117188 -2 116.495117188 -2 c 0
EndSplineSet
Fore
SplineSet
195.509765625 189 m 1
 195.137695312 251.140625 194.651367188 399.755859375 194 476 c 1
 221 448 l 1
 221.672851562 377.373046875 222.704101562 224.099609375 222.758789062 167 c 1
 210.509765625 168 196.758789062 180 195.509765625 189 c 1
38.4501953125 100 m 0
 38.4501953125 55.900390625 73.5498046875 24.400390625 120.349609375 24.400390625 c 0
 167.150390625 24.400390625 199.548828125 55.900390625 199.548828125 100 c 0
 199.548828125 116.024414062 195.390625 130.384765625 187.849609375 142.17578125 c 0
 143.75 172.952148438 l 0
 136.747070312 174.686523438 129.220703125 175.599609375 121.25 175.599609375 c 0
 74.4501953125 175.599609375 38.4501953125 144.099609375 38.4501953125 100 c 0
116.5 -2 m 0
 90.8896484375 -2 69.818359375 5.3759765625 53.5 17.2431640625 c 0
 18.4541015625 65 l 0
 14.501953125 76.3056640625 12.5 88.2080078125 12.5 100 c 0
 12.5 150 49.5 203 121.5 203 c 0
 193.5 203 227.509765625 156 227.509765625 98 c 0
 227.509765625 38 184.5 -2 116.5 -2 c 0
EndSplineSet
EndChar

StartChar: h
Encoding: 104 104 8
Width: 240
VWidth: 0
Flags: W
HStem: -3 21G<209.5 216.5> 175.6 27.4004<73.0494 151.211> 456 20G<14.3257 33.2857>
VStem: 14 27.1553<-1.86816 133.482 172.205 448> 200.04 27.9609<-2.9873 141.621>
LayerCount: 2
Back
SplineSet
14 171 m 5
 13.6279296875 233.140625 14.6513671875 322.755859375 14 399 c 5
 41 371 l 5
 41.6728515625 300.373046875 41.1005859375 238.099609375 41.1552734375 181 c 5
 36.1552734375 173 15.2490234375 162 14 171 c 5
EndSplineSet
Fore
SplineSet
14 171 m 1
 13.6279296875 233.140625 14.6513671875 399.755859375 14 476 c 1
 41 448 l 1
 41.6728515625 377.373046875 41.1005859375 238.099609375 41.1552734375 181 c 1
 36.1552734511 173.635687461 15.2490230944 145.98765037 14 171 c 1
12.990234375 100 m 0
 12.990234375 111.398581015 14.9131635826 122.953075209 18.7353261444 133.999998689 c 0
 45.9999814386 175.691695312 l 0
 64.0576893449 192.173941051 89.4493197542 203 121.990234375 203 c 0
 193.990234375 203 228.000976562 156 228.000976562 98 c 3
 228.000976562 38 227 10 227 4 c 0
 227 -2 220 -3 213 -3 c 0
 206 -3 199 -2 199 14 c 0
 199 30 200.040039062 55.900390625 200.040039062 100 c 3
 200.040039062 116.024414062 195.880859375 130.384765625 188.33984375 142.17578125 c 0
 144.240234375 172.952148438 l 0
 137.237304688 174.686523438 129.7109375 175.599609375 121.740234375 175.599609375 c 0
 74.9404296875 175.599609375 38.9404296875 144.099609375 38.9404296875 100 c 0
 38.9404296875 55.900390625 38 11 38 5 c 0
 38 -1 31 -2 24 -2 c 0
 17 -2 10 -1 10 15 c 0
 10 31 12.990234375 88.2080078125 12.990234375 100 c 0
EndSplineSet
Validated: 33
EndChar

StartChar: r
Encoding: 114 114 9
Width: 174
VWidth: 0
Flags: HW
HStem: -2 21G<25.3408 32.3408> -2 21G<25.3408 32.3408> 172.952 30.0479<72.0125 158.163>
VStem: 14.8408 28<-1.99921 141.654>
AnchorPoint: "top" 87 202 basechar 0
LayerCount: 2
Fore
SplineSet
149.081054688 172.952148438 m 0xb0
 141.866210938 172.952148438 134.551757812 175.599609375 126.581054688 175.599609375 c 0
 79.78125 175.599609375 43.78125 144.099609375 43.78125 100 c 0
 43.78125 55.900390625 42.8408203125 11 42.8408203125 5 c 0
 42.8408203125 -1 35.8408203125 -2 28.8408203125 -2 c 0
 21.8408203125 -2 14.8408203125 -1 14.8408203125 15 c 0
 14.8408203125 31 17.8310546875 88.2080078125 17.8310546875 100 c 0
 17.8310546875 150 54.8310546875 203 126.831054688 203 c 0
 157.840820312 203 154.840820312 199 158.840820312 196 c 1
 161.098632812 187 150.676757812 172.952148438 149.081054688 172.952148438 c 0xb0
EndSplineSet
EndChar

StartChar: b
Encoding: 98 98 10
Width: 240
VWidth: 0
Flags: HW
HStem: -2 26.4004<73.3924 165.513> 175.6 27.4004<72.7458 150.716> 456 20G<14.3257 33.2857>
VStem: 12.4951 25.9502<61.8722 141.887 166.205 448> 199.544 27.9609<56.1387 142.574>
AnchorPoint: "bottom" 116.495 -2 basechar 0
AnchorPoint: "top" 126 399 basechar 0
LayerCount: 2
Fore
SplineSet
14.8447265625 165 m 1
 14.47265625 227.140625 14.6513671875 399.755859375 14 476 c 1
 41 448 l 1
 41.6728515625 377.373046875 41.9453125 232.099609375 42 175 c 1
 37 167.635742188 16.09375 139.987304688 14.8447265625 165 c 1
38.4453125 100 m 0
 38.4453125 55.900390625 73.544921875 24.400390625 120.344726562 24.400390625 c 0
 167.145507812 24.400390625 199.543945312 55.900390625 199.543945312 100 c 0
 199.543945312 116.024414062 195.385742188 130.384765625 187.844726562 142.17578125 c 0
 143.745117188 172.952148438 l 0
 136.7421875 174.686523438 129.215820312 175.599609375 121.245117188 175.599609375 c 0
 74.4453125 175.599609375 38.4453125 144.099609375 38.4453125 100 c 0
116.495117188 -2 m 0
 90.884765625 -2 69.8134765625 5.3759765625 53.4951171875 17.2431640625 c 0
 18.44921875 65 l 0
 14.4970703125 76.3056640625 12.4951171875 88.2080078125 12.4951171875 100 c 0
 12.4951171875 117.794921875 17.181640625 135.969726562 26.46484375 152 c 0
 46 176.140625 l 0
 64.025390625 192.370117188 89.2509765625 203 121.495117188 203 c 0
 193.495117188 203 227.504882812 156 227.504882812 98 c 0
 227.504882812 38 184.495117188 -2 116.495117188 -2 c 0
EndSplineSet
EndChar

StartChar: f
Encoding: 102 102 11
Width: 140
VWidth: 0
Flags: W
HStem: 433.035 27<98.0102 128.01>
VStem: 54.8115 28.9541<-6.9823 345.965 374.045 419.763>
LayerCount: 2
Fore
SplineSet
9.3623046875 347 m 5
 9.3623046875 378 l 5
 69.3623046875 369 l 29
 129.362304688 381 l 5
 129.362304688 345 l 5
 70.3623046875 352 l 5
 9.3623046875 347 l 5
56.3583984375 338.03515625 m 4
 56.3583984375 343.013671875 64.376953125 346 70.3623046875 346 c 12
 75.3623046875 346 82.9677734375 345.291992188 83 338 c 4
 83.3330078125 262.791015625 83.751953125 131.077148438 83.751953125 100 c 4
 83.751953125 55.900390625 83.765625 6 83.765625 0 c 4
 83.765625 -6 76.765625 -7 69.765625 -7 c 4
 62.765625 -7 54.8115234375 -1 54.8115234375 15 c 4
 54.8115234375 31 57.8017578125 88.2080078125 57.8017578125 100 c 4
 57.8017578125 132.673828125 56.9384765625 262.362304688 56.3583984375 338.03515625 c 4
56.2373046875 384.03515625 m 4
 56.02734375 410.400390625 84.56640625 454.74609375 114.538085938 460.03515625 c 4
 131.538085938 463.03515625 135.899414062 435.51171875 121.538085938 433.03515625 c 4
 92.5380859375 428.03515625 81.8759765625 397.208984375 81.9853515625 380.03515625 c 4
 82.0322265625 372.700195312 74.583984375 374.03515625 69.583984375 374.03515625 c 28
 64.583984375 374.03515625 56.2958984375 376.668945312 56.2373046875 384.03515625 c 4
EndSplineSet
Validated: 33
EndChar

StartChar: p
Encoding: 112 112 12
Width: 240
VWidth: 0
Flags: HW
HStem: -305 21G<34.4502 41.4502> -2 26.4004<73.8876 166.008> 175.6 27.4004<73.9633 151.211>
VStem: 15.9502 36<-304.448 -203.069> 19 25.9502<-297.689 23 50.9369 148.636> 200.04 27.9609<56.1387 142.574>
AnchorPoint: "top" 122 202 basechar 0
LayerCount: 2
Fore
SplineSet
44.9501953125 -201 m 0xec
 44.9501953125 -245.099609375 51.9501953125 -292 51.9501953125 -298 c 0
 51.9501953125 -304 44.9501953125 -305 37.9501953125 -305 c 0
 30.9501953125 -305 15.9501953125 -299 15.9501953125 -283 c 0xf4
 15.9501953125 -267 19 -212.791992188 19 -201 c 0
 19 -151 19 -57 18 60 c 1
 45 23 l 1
 46 -82 44.9501953125 -156.900390625 44.9501953125 -201 c 0xec
38.9404296875 100 m 0
 38.9404296875 55.900390625 74.0400390625 24.400390625 120.83984375 24.400390625 c 0
 167.640625 24.400390625 200.040039062 55.900390625 200.040039062 100 c 0
 200.040039062 116.024414062 195.880859375 130.384765625 188.33984375 142.17578125 c 0
 144.240234375 172.952148438 l 0
 137.237304688 174.686523438 129.7109375 175.599609375 121.740234375 175.599609375 c 0
 74.9404296875 175.599609375 38.9404296875 144.099609375 38.9404296875 100 c 0
116.990234375 -2 m 0
 91.3798828125 -2 70.30859375 5.3759765625 53.990234375 17.2431640625 c 0
 18.9443359375 65 l 0
 14.9921875 76.3056640625 12.990234375 88.2080078125 12.990234375 100 c 0
 12.990234375 150 49.990234375 203 121.990234375 203 c 0
 193.990234375 203 228.000976562 156 228.000976562 98 c 0
 228.000976562 38 184.990234375 -2 116.990234375 -2 c 0
EndSplineSet
EndChar

StartChar: q
Encoding: 113 113 13
Width: 240
VWidth: 0
Flags: HW
HStem: -305 21G<197.5 204.5> -2 26.4004<74.9829 167.104> 175.6 27.4004<89.7805 167.028>
VStem: 12.9902 27.9609<56.1387 142.574> 187 36<-304.448 -203.069> 194 25.9502<-297.689 23> 202.051 25.9502<61.8722 141.72>
AnchorPoint: "top" 122 202 basechar 0
LayerCount: 2
Fore
SplineSet
194 -201 m 0xf4
 194 -156.900390625 194.991210938 -82 195.991210938 23 c 1
 222.991210938 60 l 1
 221.991210938 -57 219.950195312 -151 219.950195312 -201 c 0xf4
 219.950195312 -212.791992188 223 -267 223 -283 c 0
 223 -299 208 -305 201 -305 c 0
 194 -305 187 -304 187 -298 c 0xf8
 187 -292 194 -245.099609375 194 -201 c 0xf4
202.05078125 100 m 0xf2
 202.05078125 144.099609375 166.05078125 175.599609375 119.250976562 175.599609375 c 0
 111.280273438 175.599609375 103.75390625 174.686523438 96.7509765625 172.952148438 c 0
 52.6513671875 142.17578125 l 0
 45.1103515625 130.384765625 40.951171875 116.024414062 40.951171875 100 c 0
 40.951171875 55.900390625 73.3505859375 24.400390625 120.151367188 24.400390625 c 0
 166.951171875 24.400390625 202.05078125 55.900390625 202.05078125 100 c 0xf2
124.000976562 -2 m 0
 56.0009765625 -2 12.990234375 38 12.990234375 98 c 0
 12.990234375 156 47.0009765625 203 119.000976562 203 c 0
 191.000976562 203 228.000976562 150 228.000976562 100 c 0
 228.000976562 88.2080078125 225.999023438 76.3056640625 222.046875 65 c 0
 187.000976562 17.2431640625 l 0
 170.682617188 5.3759765625 149.611328125 -2 124.000976562 -2 c 0
EndSplineSet
EndChar

StartChar: u
Encoding: 117 117 14
Width: 250
VWidth: 0
Flags: W
HStem: -3 27.4004<78.4832 156.211> 182 20G<25.5 32.5 214.5 221.5>
VStem: 15 26<61.3268 201.985> 205.04 27.9609<58.3788 202.987>
AnchorPoint: "top" 127 190 basechar 0
AnchorPoint: "bottom" 129 -2 basechar 0
LayerCount: 2
Fore
SplineSet
16.0498046875 100 m 0
 16.0498046875 111.791992188 15 169 15 185 c 0
 15 201 22 202 29 202 c 0
 36 202 41 201 41 195 c 0
 41 189 42 144.099609375 42 100 c 0
 42 55.900390625 79.9404296875 24.400390625 126.740234375 24.400390625 c 0
 134.7109375 24.400390625 142.237304688 25.3134765625 149.240234375 27.0478515625 c 0
 193.33984375 57.82421875 l 0
 200.880859375 69.615234375 205.040039062 83.9755859375 205.040039062 100 c 3
 205.040039062 144.099609375 204 170 204 186 c 0
 204 202 211 203 218 203 c 0
 225 203 232 202 232 196 c 0
 232 190 233.000976562 162 233.000976562 102 c 3
 233.000976562 44 198.990234375 -3 126.990234375 -3 c 0
 54.990234375 -3 16.0498046875 50 16.0498046875 100 c 0
EndSplineSet
EndChar

StartChar: v
Encoding: 118 118 15
Width: 240
VWidth: 0
Flags: HW
HStem: 2 200
VStem: 15.75 26<162.608 201.985> 198.25 26<162.608 201.985>
AnchorPoint: "top" 124 189 basechar 0
LayerCount: 2
Fore
SplineSet
140.25 2 m 5
 135.131835938 -6.70703125 122.75 14 122.75 17 c 5
 152.75 87 198.25 189 198.25 195 c 4
 198.25 201 203.25 202 210.25 202 c 4
 217.25 202 224.25 201 224.25 185 c 4
 224.25 169 178.25 71 140.25 2 c 5
99.75 2 m 5
 61.75 71 15.75 169 15.75 185 c 4
 15.75 201 22.75 202 29.75 202 c 4
 36.75 202 41.75 201 41.75 195 c 4
 41.75 189 87.25 87 117.25 17 c 5
 117.25 14 104.868164062 -6.70703125 99.75 2 c 5
EndSplineSet
EndChar

StartChar: w
Encoding: 119 119 16
Width: 402
VWidth: 0
Flags: HW
HStem: 3 200
VStem: 23 26<162.608 201.985> 205.5 26<162.608 201.585> 237.75 26<163.608 202.585> 420.25 26<163.608 202.985>
LayerCount: 2
Fore
SplineSet
254.310546875 2 m 5
 216.310546875 71 203.189453125 92 203.189453125 108 c 4
 203.189453125 124 206.140625 125 210.33984375 125 c 4
 214.5390625 125 229.189453125 124 229.189453125 118 c 4
 229.189453125 112 241.810546875 87 271.810546875 17 c 5
 271.810546875 14 259.427734375 -6.70703125 254.310546875 2 c 5
294.810546875 2 m 5
 289.69140625 -6.70703125 277.310546875 14 277.310546875 17 c 5
 307.310546875 87 352.810546875 189 352.810546875 195 c 4
 352.810546875 201 357.810546875 202 364.810546875 202 c 4
 371.810546875 202 378.810546875 201 378.810546875 185 c 4
 378.810546875 169 332.810546875 71 294.810546875 2 c 5
147.689453125 2 m 1
 142.572265625 -6.70703125 130.189453125 14 130.189453125 17 c 1
 160.189453125 87 172.810546875 112 172.810546875 118 c 0
 172.810546875 124 187.4609375 125 191.66015625 125 c 0
 195.859375 125 198.810546875 124 198.810546875 108 c 0
 198.810546875 92 185.689453125 71 147.689453125 2 c 1
107.189453125 2 m 1
 69.189453125 71 23.189453125 169 23.189453125 185 c 0
 23.189453125 201 30.189453125 202 37.189453125 202 c 0
 44.189453125 202 49.189453125 201 49.189453125 195 c 0
 49.189453125 189 94.689453125 87 124.689453125 17 c 1
 124.689453125 14 112.30859375 -6.70703125 107.189453125 2 c 1
EndSplineSet
EndChar

StartChar: x
Encoding: 120 120 18
Width: 180
VWidth: 0
Flags: W
HStem: 183 20G<17.8154 24.7461 155.26 162.19>
VStem: 7.41992 165.166
LayerCount: 2
Fore
SplineSet
59.203125 107 m 1
 45 134 7.419921875 178.587890625 7.419921875 186 c 0
 7.419921875 202 14.349609375 203 21.28125 203 c 0
 28.2109375 203 29.7239776951 201.197607935 33.1611328125 196 c 0
 53 166 67 147 88.0029296875 112 c 1
 84.0029296875 103.900390625 61.4775390625 102.458007812 59.203125 107 c 1
59.203125 97 m 1
 61.6259765625 102.063476562 84.6025390625 97.599609375 87.302734375 94 c 1
 74.0986328125 66.3681640625 51.2578125 25.6494140625 33.9033203125 -3 c 1
 28.2724609375 -11.70703125 7.115234375 0 7.115234375 3 c 1
 22.2724609375 28 44.9033203125 71 59.203125 97 c 1
120.802734375 107 m 1
 118.529296875 102.458007812 96.0029296875 103.900390625 92.0029296875 112 c 1
 116.514257998 148.990783555 127.423242848 166.39396694 146.844726562 196 c 0
 150.132525581 201.011907836 151.794921875 203 158.724609375 203 c 0
 165.65625 203 172.5859375 202 172.5859375 186 c 0
 172.5859375 178.587890625 138 134 120.802734375 107 c 1
120.802734375 97 m 1
 135.102539062 71 157.528320312 28 172.685546875 3 c 1
 172.685546875 0 151.733398438 -11.70703125 146.102539062 -3 c 1
 128.748046875 25.6494140625 105.907226562 66.3681640625 92.703125 94 c 1
 95.4033203125 97.599609375 118.379882812 102.063476562 120.802734375 97 c 1
EndSplineSet
Validated: 1
EndChar

StartChar: y
Encoding: 121 121 19
Width: 240
VWidth: 0
Flags: HW
HStem: -335 33<86.2948 99> -297 21.7012<50.3806 179.959> -3 27.4004<76.9832 155.437> 182 20G<24 31 213 220>
VStem: 13.5 26<61.3268 201.985> 87.645 13.8243<-333.467 -301.665 -266.024 -254.442> 203.54 27.9609<-254.139 -218 -217.866 21 58.3788 202.987>
AnchorPoint: "bottom" 129 -2 basechar 0
AnchorPoint: "top" 127 190 basechar 0
LayerCount: 2
Fore
SplineSet
14.5498046875 100 m 0
 14.5498046875 111.791992188 13.5 169 13.5 185 c 0
 13.5 201 20.5 202 27.5 202 c 0
 34.5 202 39.5 201 39.5 195 c 0
 39.5 189 40.5 144.099609375 40.5 100 c 0
 40.5 55.900390625 78.4404296875 24.400390625 125.240234375 24.400390625 c 0
 133.2109375 24.400390625 140.737304688 25.3134765625 147.740234375 27.0478515625 c 0
 191.83984375 57.82421875 l 0
 199.380859375 69.615234375 203.540039062 83.9755859375 203.540039062 100 c 3
 203.540039062 144.099609375 202.5 170 202.5 186 c 0
 202.5 202 209.5 203 216.5 203 c 0
 223.5 203 230.5 202 230.5 196 c 0
 230.5 190 231.500976562 162 231.500976562 102 c 3
 231.500976562 86.677734375 229.127929688 72.123046875 224.307617188 59 c 0
 196.147460938 19 l 0
 179.037109375 5.208984375 155.58203125 -3 125.490234375 -3 c 0
 53.490234375 -3 14.5498046875 50 14.5498046875 100 c 0
37 -297 m 1
 34.0224609375 -291.534179688 17 -232 37 -200 c 0
 50 -180 89 -178 99 -200 c 0
 110.151640236 -223.824773689 109.997673704 -244.5657929 107.134282865 -266 c 1
 106.868039137 -267.992994861 92.8120024272 -266.692781235 92.8639344334 -265 c 1
 93.0542691425 -258.795829444 92.8245280566 -252.216922789 92 -245 c 0
 90 -225 88 -201 68 -200 c 0
 50 -199 49.087890625 -224.592773438 48 -243 c 0
 47.232421875 -256 50.83984375 -264 53 -277 c 1
 105.756835938 -275.298828125 l 2
 115.08203125 -275.112304688 126.318359375 -275 142 -275 c 0
 149.970703125 -275 152.997070312 -275.734375 160 -274 c 1
 183.333984375 -272 198.000753714 -249.333333321 200 -218 c 1
 200 -218 198.454101562 -33.4169921875 199.5 21 c 1
 226.491210938 60 l 1
 225.491210938 -57 228.010742188 -140 228.010742188 -200 c 0
 228.010742188 -258 215 -297 143 -297 c 2
 102.206054688 -297 l 1
 37 -297 l 1
101.469340346 -302 m 1
 100.0538725 -312.055362576 99 -322.620470689 99 -334 c 1
 82 -335 l 1
 83.4222499658 -322.55259539 85.6040537954 -312.002285728 87.645009254 -302 c 1
 87.8500941647 -300.994922762 101.563498632 -301.331107584 101.469340346 -302 c 1
EndSplineSet
EndChar

StartChar: z
Encoding: 122 122 20
Width: 180
VWidth: 0
Flags: W
HStem: -1 22<16.281 163.507> 177 22<16.281 163.507>
VStem: 18 144
LayerCount: 2
Fore
SplineSet
26.7763671875 40.9697265625 m 1
 138.776367188 172.969726562 l 1
 146.717773438 168.744140625 163 173 159 156 c 1
 47 24 l 1
 38.544921875 27.61328125 25 25 26.7763671875 40.9697265625 c 1
18 199 m 1
 162 199 l 1
 163.8671875 191.666992188 165.373046875 184.333007812 162 177 c 1
 18 177 l 1
 15.3330078125 184.333007812 15.3330078125 191.666992188 18 199 c 1
18 21 m 1
 162 21 l 1
 163.8671875 13.6669921875 165.373046875 6.3330078125 162 -1 c 1
 18 -1 l 1
 15.3330078125 6.3330078125 15.3330078125 13.6669921875 18 21 c 1
EndSplineSet
Validated: 1
EndChar

StartChar: c
Encoding: 99 99 21
Width: 190
VWidth: 0
Flags: W
HStem: -2 26.4004<74.36 171.255> 177 24.4004<77.3909 167.593>
VStem: 12.9902 25.9502<61.8722 141.772>
AnchorPoint: "top" 122.26 201.4 basechar 0
AnchorPoint: "bottom" 137 -0 basechar 0
LayerCount: 2
Back
SplineSet
12.990234375 100 m 4
 12.990234375 150 49.990234375 203 121.990234375 203 c 4
 193.990234375 203 228.000976562 156 228.000976562 98 c 7
 228.000976562 38 227 10 227 4 c 4
 227 -2 220 -3 213 -3 c 4
 206 -3 199 -2 199 14 c 4
 199 30 200.040039062 55.900390625 200.040039062 100 c 7
 200.040039062 116.024414062 195.880859375 130.384765625 188.33984375 142.17578125 c 4
 144.240234375 172.952148438 l 4
 137.237304688 174.686523438 129.7109375 175.599609375 121.740234375 175.599609375 c 4
 74.9404296875 175.599609375 38.9404296875 144.099609375 38.9404296875 100 c 4
 38.9404296875 55.900390625 38 11 38 5 c 4
 38 -1 31 -2 24 -2 c 4
 17 -2 10 -1 10 15 c 4
 10 31 12.990234375 88.2080078125 12.990234375 100 c 4
EndSplineSet
Fore
SplineSet
170 25 m 1
 171.831369759 16.8466471545 173.811570859 8.75150443702 169 -2 c 1
 149 -2 184.990234375 -2 116.990234375 -2 c 0
 91.3798828125 -2 70.30859375 5.3759765625 53.990234375 17.2431640625 c 0
 18.9443359375 65 l 0
 14.9921875 76.3056640625 12.990234375 88.2080078125 12.990234375 100 c 0
 12.990234375 150 50.259765625 201.400390625 122.259765625 201.400390625 c 4
 194.259765625 201.400390625 128.259765625 201.400390625 166.259765625 201.400390625 c 1
 167.999023438 193.067382812 170.147460938 184.733398438 165.259765625 176.400390625 c 9
 127.259765625 177.400390625 129.970703125 177 122 177 c 0
 75.2001953125 177 38.9404296875 144.099609375 38.9404296875 100 c 0
 38.9404296875 55.900390625 74.0400390625 24.400390625 120.83984375 24.400390625 c 0
 167.640625 24.400390625 165 25 170 25 c 1
EndSplineSet
Validated: 33
EndChar

StartChar: i
Encoding: 105 105 22
Width: 60
VWidth: 0
Flags: W
HStem: 240 36<11.0058 44.9942>
VStem: 14.9902 25.9502<-5.99418 201.274 240.006 275.994>
LayerCount: 2
Fore
SplineSet
11 258 m 4
 11 268 19 276 28 276 c 4
 37 276 45 268 45 258 c 4
 45 248 37 240 28 240 c 4
 19 240 11 248 11 258 c 4
40.9404296875 100 m 0
 40.9404296875 55.900390625 43 14 43 8 c 0
 43 2 35 -6 28 -6 c 0
 21 -6 12 -6 12 10 c 0
 12 26 14.990234375 88.2080078125 14.990234375 100 c 0
 14.990234375 150 15 83 14 200 c 1
 23 203.514648438 32 204.461914062 41 200 c 1
 40 94 40.9404296875 144.099609375 40.9404296875 100 c 0
EndSplineSet
Validated: 33
EndChar

StartChar: j
Encoding: 106 106 23
Width: 240
VWidth: 0
Flags: W
HStem: -335 33<86.2948 99> -297 21.7012<50.3806 179.959> 240 36<191.508 225.496>
VStem: 82 17<-334 -301.596> 92.8639 14.2703<-266.854 -213.101> 191.502 34<240.006 275.994> 200 28.0107<-258.079 -218 -217.781 200.205>
LayerCount: 2
Fore
SplineSet
101.469340346 -302 m 1xf0
 100.0538725 -312.055362576 99 -322.620470689 99 -334 c 1
 82 -335 l 1
 83.4222499658 -322.55259539 85.6040537954 -312.002285728 87.645009254 -302 c 1
 87.8500941647 -300.994922762 101.563498632 -301.331107584 101.469340346 -302 c 1xf0
194.501953125 200 m 1
 203.501953125 203.514648438 212.501953125 204.461914062 221.501953125 200 c 1
 220.501953125 94 228.010742188 -140 228.010742188 -200 c 0
 228.010742188 -258 215 -297 143 -297 c 2
 102.206054688 -297 l 1
 37 -297 l 1
 34.0224609375 -291.534179688 17 -232 37 -200 c 0
 50 -180 89 -178 99 -200 c 0xf2
 110.151640236 -223.824773689 109.997673704 -244.5657929 107.134282865 -266 c 1
 106.868039137 -267.992994861 92.8120024272 -266.692781235 92.8639344334 -265 c 1
 93.0542691425 -258.795829444 92.8245280566 -252.216922789 92 -245 c 0
 90 -225 88 -201 68 -200 c 0
 50 -199 49.087890625 -224.592773438 48 -243 c 0
 47.232421875 -256 50.83984375 -264 53 -277 c 1
 105.756835938 -275.298828125 l 2
 115.08203125 -275.112304688 126.318359375 -275 142 -275 c 0
 149.970703125 -275 152.997070312 -275.734375 160 -274 c 1
 183.333984375 -272 198.000753714 -249.333333321 200 -218 c 1xea
 200 -218 195.501953125 83 194.501953125 200 c 1
191.501953125 258 m 0xe4
 191.501953125 268 199.501953125 276 208.501953125 276 c 0
 217.501953125 276 225.501953125 268 225.501953125 258 c 0
 225.501953125 248 217.501953125 240 208.501953125 240 c 0
 199.501953125 240 191.501953125 248 191.501953125 258 c 0xe4
EndSplineSet
Validated: 33
EndChar

StartChar: k
Encoding: 107 107 24
Width: 215
VWidth: 0
Flags: HW
HStem: 0 26.4004<103.368 200.263> 177.6 24.4004<105.646 196.341>
VStem: 30.998 25.748<-9.99016 37 155 391.99> 41.998 25.9502<63.8722 143.859>
LayerCount: 2
Fore
SplineSet
180.5 204 m 29
 181.5 174 l 29
 60.5 94 l 29
 186.5 26 l 29
 185.5 -7 l 29
 28.5 97 l 29
 180.5 204 l 29
34.197265625 382 m 4xe0
 34.255859375 389.366210938 42.5439453125 392 47.5439453125 392 c 28
 52.5439453125 392 59.9921875 393.334960938 59.9453125 386 c 4
 59.8349609375 368.826171875 57.6572265625 171.69921875 57.498046875 155 c 5
 35.498046875 117 l 5
 35.720703125 142.948242188 33.9873046875 355.634765625 34.197265625 382 c 4xe0
35.498046875 0 m 4
 35.2880859375 26.365234375 35.720703125 47.0517578125 35.498046875 73 c 5
 62.498046875 37 l 5
 62.6572265625 20.30078125 61.1357421875 13.173828125 61.24609375 -4 c 4
 61.29296875 -11.3349609375 53.8447265625 -10 48.8447265625 -10 c 28
 43.8447265625 -10 35.556640625 -7.3662109375 35.498046875 0 c 4
EndSplineSet
EndChar

StartChar: g
Encoding: 103 103 25
Width: 240
VWidth: 0
Flags: HW
HStem: -335 33<86.2948 99> -297 21.7012<50.3806 179.959> -2 26.4004<74.9829 167.104> 175.6 27.4004<89.7805 167.028>
VStem: 12.9902 27.9609<56.1387 142.574> 82 17<-334 -301.596> 92.8639 14.2703<-266.854 -213.101> 202.051 25.9502<-254.241 -218 -217.866 21 58.2141 60 61.8722 141.72>
AnchorPoint: "top" 122 202 basechar 0
LayerCount: 2
Fore
SplineSet
101.469340346 -302 m 1xfd
 100.0538725 -312.055362576 99 -322.620470689 99 -334 c 1
 82 -335 l 1
 83.4222499658 -322.55259539 85.6040537954 -312.002285728 87.645009254 -302 c 1
 87.8500941647 -300.994922762 101.563498632 -301.331107584 101.469340346 -302 c 1xfd
199.5 21 m 1
 226.491210938 60 l 1
 225.491210938 -57 228.010742188 -140 228.010742188 -200 c 0
 228.010742188 -258 215 -297 143 -297 c 2
 102.206054688 -297 l 1
 37 -297 l 1
 34.0224609375 -291.534179688 17 -232 37 -200 c 0
 50 -180 89 -178 99 -200 c 0xfd
 110.151640236 -223.824773689 109.997673704 -244.5657929 107.134282865 -266 c 1
 106.868039137 -267.992994861 92.8120024272 -266.692781235 92.8639344334 -265 c 1xfb
 93.0542691425 -258.795829444 92.8245280566 -252.216922789 92 -245 c 0
 90 -225 88 -201 68 -200 c 0
 50 -199 49.087890625 -224.592773438 48 -243 c 0
 47.232421875 -256 50.83984375 -264 53 -277 c 1
 105.756835938 -275.298828125 l 2
 115.08203125 -275.112304688 126.318359375 -275 142 -275 c 0
 149.970703125 -275 152.997070312 -275.734375 160 -274 c 1
 183.333984375 -272 198.000753714 -249.333333321 200 -218 c 1
 200 -218 198.454101562 -33.4169921875 199.5 21 c 1
202.05078125 100 m 0
 202.05078125 144.099609375 166.05078125 175.599609375 119.250976562 175.599609375 c 0
 111.280273438 175.599609375 103.75390625 174.686523438 96.7509765625 172.952148438 c 0
 52.6513671875 142.17578125 l 0
 45.1103515625 130.384765625 40.951171875 116.024414062 40.951171875 100 c 0
 40.951171875 55.900390625 73.3505859375 24.400390625 120.151367188 24.400390625 c 0
 166.951171875 24.400390625 202.05078125 55.900390625 202.05078125 100 c 0
124.000976562 -2 m 0
 56.0009765625 -2 12.990234375 38 12.990234375 98 c 0
 12.990234375 156 47.0009765625 203 119.000976562 203 c 0
 191.000976562 203 228.000976562 150 228.000976562 100 c 0
 228.000976562 88.2080078125 225.999023438 76.3056640625 222.046875 65 c 0
 187.000976562 17.2431640625 l 0
 170.682617188 5.3759765625 149.611328125 -2 124.000976562 -2 c 0
EndSplineSet
EndChar

StartChar: period
Encoding: 46 46 26
Width: 100
VWidth: 0
Flags: W
HStem: -1.98047 43.5605<29.4367 70.5633>
VStem: 29.4297 41.1406<-1.97341 41.573>
LayerCount: 2
Fore
SplineSet
29.4296875 19.7998046875 m 4
 29.4296875 31.8994140625 39.109375 41.580078125 50 41.580078125 c 4
 60.890625 41.580078125 70.5703125 31.8994140625 70.5703125 19.7998046875 c 4
 70.5703125 7.7001953125 60.890625 -1.98046875 50 -1.98046875 c 4
 39.109375 -1.98046875 29.4296875 7.7001953125 29.4296875 19.7998046875 c 4
EndSplineSet
Validated: 1
EndChar

StartChar: m
Encoding: 109 109 28
Width: 430
VWidth: 0
Flags: W
HStem: -3 21G<210.5 214.084 214.918 218.5 400.5 407.5> 175.6 27.4004<74.9629 152.283 263.054 342.211>
VStem: 11 28<-1.99921 141.654> 200 28<-2.99921 137.219> 391.039 27.9609<-2.9873 140.621>
LayerCount: 2
Back
SplineSet
203.990234375 99 m 0
 203.990234375 149 240.990234375 202 312.990234375 202 c 0
 384.990234375 202 419 155 419 97 c 3
 419 37 418 10 418 4 c 0
 418 -2 411 -3 404 -3 c 0
 397 -3 390 -2 390 14 c 0
 390 30 391.0390625 54.900390625 391.0390625 99 c 3
 391.0390625 115.024414062 386.880859375 129.384765625 379.33984375 141.17578125 c 0
 335.240234375 171.952148438 l 0
 328.236328125 173.686523438 320.7109375 174.599609375 312.740234375 174.599609375 c 0
 265.939453125 174.599609375 229 143.099609375 229 99 c 0
 229 54.900390625 228 10 228 4 c 0
 228 -2 222 -3 215 -3 c 0
 208 -3 201 -2 201 14 c 0
 201 30 203.990234375 87.2080078125 203.990234375 99 c 0
EndSplineSet
Fore
SplineSet
13.990234375 100 m 0
 13.990234375 150 50.990234375 203 122.990234375 203 c 0
 171.202148438 203 202.380859375 181.92578125 217.720703125 150.5859375 c 1
 234.456054688 179.801757812 266.393554688 202 312.990234375 202 c 0
 384.990234375 202 419 155 419 97 c 0
 419 37 418 10 418 4 c 0
 418 -2 411 -3 404 -3 c 0
 397 -3 390 -2 390 14 c 0
 390 30 391.0390625 54.900390625 391.0390625 99 c 0
 391.0390625 115.024414062 386.880859375 129.384765625 379.33984375 141.17578125 c 1
 335.240234375 171.952148438 l 2
 328.236328125 173.686523438 320.7109375 174.599609375 312.740234375 174.599609375 c 0
 219.403320312 174.599609375 229 95 228 4 c 0
 227.93359375 -2 222 -3 215 -3 c 0
 214.8359375 -3 214.671875 -2.998046875 214.508789062 -2.998046875 c 0
 214.338867188 -2.998046875 214.168945312 -3 214 -3 c 0
 207 -3 200 -2 200 14 c 0
 200 30 203 55.900390625 203 100 c 0
 203 116.024414062 196.880859375 130.384765625 189.33984375 142.17578125 c 1
 145.240234375 172.952148438 l 2
 138.237304688 174.686523438 130.7109375 175.599609375 122.740234375 175.599609375 c 0
 75.939453125 175.599609375 39.939453125 144.099609375 39.939453125 100 c 0
 39.939453125 55.900390625 39 11 39 5 c 0
 39 -1 32 -2 25 -2 c 0
 18 -2 11 -1 11 15 c 0
 11 31 13.990234375 88.2080078125 13.990234375 100 c 0
EndSplineSet
Validated: 1
EndChar

StartChar: H
Encoding: 72 72 29
Width: 205
VWidth: 0
Flags: W
HStem: -4 20G<24.25 31.25 176.75 183.75> 175 25<44.5384 161.461>
VStem: 12.75 28<-3.96107 323.06> 165.25 28<-4.96107 322.06>
LayerCount: 2
Fore
SplineSet
46 200 m 5
 91.3330078125 200 114.666992188 199 160 199 c 5
 162.997215687 190.666666669 162.315964868 182.33333333 160 174 c 5
 46 175 l 5
 43.0019706658 183.333333306 43.6834064226 191.666666696 46 200 c 5
192.190429688 99 m 0
 192.190429688 54.900390625 193.25 13 193.25 7 c 0
 193.25 1 187.25 -5 180.25 -5 c 0
 173.25 -5 165.25 -2 165.25 6 c 0
 165.25 22 166.240234375 87.2080078125 166.240234375 99 c 0
 166.240234375 149 165.25 202 164.25 319 c 1
 173.25 324.857421875 182.25 326.436523438 191.25 319 c 1
 192.25 214 192.190429688 143.099609375 192.190429688 99 c 0
39.6904296875 100 m 0
 39.6904296875 55.900390625 40.75 14 40.75 8 c 0
 40.75 2 34.75 -4 27.75 -4 c 0
 20.75 -4 12.75 -1 12.75 7 c 0
 12.75 23 13.740234375 88.2080078125 13.740234375 100 c 0
 13.740234375 150 12.75 203 11.75 320 c 1
 20.75 325.857421875 29.75 327.436523438 38.75 320 c 1
 39.75 215 39.6904296875 144.099609375 39.6904296875 100 c 0
EndSplineSet
Validated: 33
EndChar

StartChar: O
Encoding: 79 79 30
Width: 250
VWidth: 0
Flags: W
HStem: -7.90039 25.5488<92.8212 157.212> 298.352 25.5488<92.8777 157.179>
VStem: 17 30.2402<76.1985 239.515> 202.76 30.2402<79.1234 239.801>
AnchorPoint: "top" 125 323.9 basechar 0
AnchorPoint: "bottom" 124 -4 basechar 0
LayerCount: 2
Back
SplineSet
47.75 200 m 5
 93.0830078125 200 158.916992188 199 204.25 199 c 5
 204.25 174 l 5
 47.75 175 l 5
 47.75 200 l 5
216.190429688 99 m 4
 216.190429688 54.900390625 217.25 13 217.25 7 c 4
 217.25 1 211.25 -5 204.25 -5 c 4
 197.25 -5 189.25 -2 189.25 6 c 4
 189.25 22 190.240234375 87.2080078125 190.240234375 99 c 4
 190.240234375 149 189.25 202 188.25 319 c 5
 197.25 324.857421875 206.25 326.436523438 215.25 319 c 5
 216.25 214 216.190429688 143.099609375 216.190429688 99 c 4
63.6904296875 100 m 4
 63.6904296875 55.900390625 64.75 14 64.75 8 c 4
 64.75 2 58.75 -4 51.75 -4 c 4
 44.75 -4 36.75 -1 36.75 7 c 4
 36.75 23 37.740234375 88.2080078125 37.740234375 100 c 4
 37.740234375 150 36.75 203 35.75 320 c 5
 44.75 325.857421875 53.75 327.436523438 62.75 320 c 5
 63.75 215 63.6904296875 144.099609375 63.6904296875 100 c 4
EndSplineSet
Fore
SplineSet
47.240234375 158 m 0
 47.240234375 80.7177734375 81.7998046875 17.6484375 125 17.6484375 c 0
 144.893411826 17.6484375 162.954541787 31.0225626962 176.652413955 52.9999983247 c 0
 194.797977015 95.9999976493 l 0
 199.900203006 114.715423294 202.759765625 135.769703024 202.759765625 158 c 0
 202.759765625 235.282226562 168.200195312 298.3515625 125 298.3515625 c 0
 81.7998046875 298.3515625 47.240234375 235.282226562 47.240234375 158 c 0
17 158 m 0
 17 194.601960103 24.7061336137 228.50696158 37.8026307162 255.999997549 c 0
 62.9999983264 293.947811097 l 0
 80.5051200026 312.811930775 101.860137977 323.900390625 125 323.900390625 c 4
 185 323.900390625 233 249.349609375 233 158 c 0
 233 66.650390625 185 -7.900390625 125 -7.900390625 c 0
 65 -7.900390625 17 66.650390625 17 158 c 0
EndSplineSet
Validated: 1
EndChar

StartChar: C
Encoding: 67 67 31
Width: 200
VWidth: 0
Flags: W
HStem: 0 25.5488<87.9702 188.696> 294 25.5488<87.1991 188.696>
VStem: 11.3096 30.2402<80.202 238.079>
LayerCount: 2
Fore
SplineSet
120.309570312 0 m 4
 60.3095703125 0 11.3095703125 66.650390625 11.3095703125 158 c 4
 11.3095703125 194.6015625 19.015625 228.506835938 32.1123046875 256 c 4
 57.3095703125 293.948242188 l 4
 74.814453125 312.811523438 96.169921875 319.548828125 119.309570312 319.548828125 c 4
 179.309570312 319.548828125 157.502929688 320 188.696289062 320 c 29
 188.696289062 293 l 29
 157.502929688 293 162.509765625 294 119.309570312 294 c 4
 76.109375 294 41.5498046875 235.282226562 41.5498046875 158 c 4
 41.5498046875 80.7177734375 77.109375 25.548828125 120.309570312 25.548828125 c 4
 140.203125 25.548828125 158.502929688 25 188.696289062 25 c 29
 188.696289062 0 l 29
 158.502929688 0 180.309570312 0 120.309570312 0 c 4
EndSplineSet
Validated: 1
EndChar

StartChar: P
Encoding: 80 80 32
Width: 210
VWidth: 0
Flags: W
HStem: -4 21G<23.8799 30.8799> 175 24<42.7526 138.333> 199 21G<39.0928 39.1356> 303 20<46.1709 133.319>
VStem: 12.3799 28<-3.96107 182 182 323.06> 170.63 28<223.176 278.506>
LayerCount: 2
Back
SplineSet
45.6298828125 200 m 1
 90.962890625 200 114.296875 199 159.629882812 199 c 1
 162.626953125 190.666992188 161.946289062 182.333007812 159.629882812 174 c 1
 45.6298828125 175 l 1
 42.6318359375 183.333007812 43.3134765625 191.666992188 45.6298828125 200 c 1
191.8203125 99 m 0
 191.8203125 54.900390625 192.879882812 13 192.879882812 7 c 0
 192.879882812 1 186.879882812 -5 179.879882812 -5 c 0
 172.879882812 -5 164.879882812 -2 164.879882812 6 c 0
 164.879882812 22 165.870117188 87.2080078125 165.870117188 99 c 0
 165.870117188 149 164.879882812 202 163.879882812 319 c 1
 172.879882812 324.857421875 181.879882812 326.436523438 190.879882812 319 c 1
 191.879882812 214 191.8203125 143.099609375 191.8203125 99 c 0
39.3203125 100 m 0
 39.3203125 55.900390625 40.3798828125 14 40.3798828125 8 c 0
 40.3798828125 2 34.3798828125 -4 27.3798828125 -4 c 0
 20.3798828125 -4 12.3798828125 -1 12.3798828125 7 c 0
 12.3798828125 23 13.3701171875 88.2080078125 13.3701171875 100 c 0
 13.3701171875 150 12.3798828125 203 11.3798828125 320 c 1
 20.3798828125 325.857421875 29.3798828125 327.436523438 38.3798828125 320 c 1
 39.3798828125 215 39.3203125 144.099609375 39.3203125 100 c 0
EndSplineSet
Fore
SplineSet
39.1856427594 198.999998117 m 5xbc
 39 199 37 199 37 199 c 5xdc
 37 182 l 21
 37 182.01953125 39.2345834384 181.992506946 39.2400456526 181.999998187 c 5
 39.3338153625 148.066588803 39.3203125 120.995814422 39.3203125 100 c 4
 39.3203125 55.900390625 40.3798828125 14 40.3798828125 8 c 4
 40.3798828125 2 34.3798828125 -4 27.3798828125 -4 c 4
 20.3798828125 -4 12.3798828125 -1 12.3798828125 7 c 4
 12.3798828125 23 13.3701171875 88.2080078125 13.3701171875 100 c 4
 13.3701171875 150 12.3798828125 203 11.3798828125 320 c 5
 20.3798828125 325.857421875 29 327.436523438 38 320 c 5
 38.0126953125 318.661132812 38.025390625 317.328125 38.0380859375 316 c 5
 38.041015625 315.666015625 37.0439139378 315.332984666 37.0470057248 315 c 5
 37.1070264356 308.535784731 37.1629697711 302.202943688 37.2158203125 296 c 5
 37.2216796875 295.33203125 38.6067172892 294.665162611 38.6122670993 294 c 5
 38.912134616 258.059912681 39.0855541019 226.508718909 39.1856427594 198.999998117 c 5xbc
48.6298828125 318.877929688 m 5
 61.6572265625 322.1015625 67.822265625 323 82.6298828125 323 c 4
 146.629882812 323 198.629882812 290 198.629882812 249 c 4
 198.629882812 208 146.629882812 175 82.6298828125 175 c 4
 68.2001953125 175 59.380859375 174.809570312 46.6298828125 177.877929688 c 5
 38.6298828125 181 40.6298828125 201.131835938 46.6298828125 203 c 5
 58.8388671875 199.24609375 67.7744140625 199 82.6298828125 199 c 4
 131.629882812 199 170.629882812 222 170.629882812 251 c 4
 170.629882812 280 131.629882812 303 82.6298828125 303 c 4
 67.7744140625 303 61.8388671875 301.75390625 49.6298828125 298 c 5
 44.6298828125 299.868164062 40.6298828125 311.868164062 48.6298828125 318.877929688 c 5
EndSplineSet
Validated: 33
EndChar

StartChar: R
Encoding: 82 82 33
Width: 215
VWidth: 0
Flags: W
HStem: -4 21G<21.1904 28.1904> 175 24<40.3466 58.1121 58.3272 135.204> 303 20<43.4814 130.63>
VStem: 9.69043 28<-3.96107 323.06> 167.94 28<223.176 278.506>
LayerCount: 2
Fore
SplineSet
39.3115234375 164 m 1
 42.828125 169.166992188 48.5009765625 172.83984375 57.3115234375 173.491210938 c 1
 206.311523438 1 l 1
 195.64453125 -0.4677734375 184.977539062 -2.24609375 174.311523438 0 c 1
 39.3115234375 164 l 1
36.4970703125 199 m 5
 36.3115234375 199 34.3115234375 199 34.3115234375 199 c 5
 34.0712890625 173 l 21
 34.0712890625 173.01953125 36.3056640625 172.9921875 36.3115234375 173 c 5
 36.4052734375 139.06640625 36.6318359375 120.99609375 36.6318359375 100 c 4
 36.6318359375 55.900390625 37.6904296875 14 37.6904296875 8 c 4
 37.6904296875 2 31.6904296875 -4 24.6904296875 -4 c 4
 17.6904296875 -4 9.6904296875 -1 9.6904296875 7 c 4
 9.6904296875 23 10.6806640625 88.2080078125 10.6806640625 100 c 4
 10.6806640625 150 9.6904296875 203 8.6904296875 320 c 5
 17.6904296875 325.857421875 26.3115234375 327.436523438 35.3115234375 320 c 5
 35.3232421875 318.661132812 35.3369140625 317.328125 35.3486328125 316 c 5
 35.3525390625 315.666015625 34.3544921875 315.333007812 34.3583984375 315 c 5
 34.41796875 308.536132812 34.4736328125 302.203125 34.5263671875 296 c 5
 34.5322265625 295.33203125 35.91796875 294.665039062 35.9228515625 294 c 5
 36.2236328125 258.059570312 36.396484375 226.508789062 36.4970703125 199 c 5
45.9404296875 318.877929688 m 5
 58.9677734375 322.1015625 65.1337890625 323 79.9404296875 323 c 4
 143.940429688 323 195.940429688 290 195.940429688 249 c 4
 195.940429688 208 143.940429688 175 79.9404296875 175 c 4
 71.4326171875 175 65.8740234375 174.424804688 59.3115234375 175 c 5
 58.9775390625 175.029296875 58.6455078125 176.458984375 58.3115234375 176.491210938 c 5
 54.0732421875 176.905273438 48.7919921875 178.109375 43.9404296875 179.276367188 c 5
 42.8564453125 179.700195312 41.0439453125 180.038085938 40.3115234375 181 c 5
 35.6455078125 187.126953125 38.7548828125 201.385742188 43.9404296875 203 c 5
 56.1494140625 199.24609375 65.0849609375 199 79.9404296875 199 c 4
 128.940429688 199 167.940429688 222 167.940429688 251 c 4
 167.940429688 280 128.940429688 303 79.9404296875 303 c 4
 65.0849609375 303 59.1494140625 301.75390625 46.9404296875 298 c 5
 41.9404296875 299.868164062 37.9404296875 311.868164062 45.9404296875 318.877929688 c 5
EndSplineSet
Validated: 33
EndChar

StartChar: Q
Encoding: 81 81 34
Width: 290
VWidth: 0
Flags: W
HStem: -7.90039 25.5488<92.8212 157.212 230.175 272.822> 298.352 25.5488<92.8777 157.179>
VStem: 17 30.2402<76.1985 239.515> 171.954 16.546<73.0785 100.809> 202.76 30.2402<79.1234 239.801>
LayerCount: 2
Fore
SplineSet
214.999998732 39.5734433914 m 1
 229.301076912 28.0721880963 248.361176909 21.4003916588 269.899414062 21.400390625 c 0
 273.852435293 21.4003904353 276.711762657 -3.24316433928 270 -3.2431640625 c 0
 244.389648438 -3.24316300637 223.318359375 4.1328125 207 16 c 0
 201.129276323 24 l 1
 201.129276323 24 201.678648139 25.6953574098 202.624969277 27.9999998984 c 0
 205.02526962 33.8456203058 209.979383328 43.6111375266 214.999998732 39.5734433914 c 1
171.954101562 63.7568359375 m 17
 168.001953125 75.0625 166 86.96484375 166 98.7568359375 c 1
 177 102 183.733745096 105.636931875 188 97 c 1
 188 93.9371113836 188.169314911 90.9350012817 188.500105123 88.0000019727 c 1
 189.747465923 76.9325551596 171.954101562 63.7568359375 171.954101562 63.7568359375 c 17
47.240234375 158 m 0
 47.240234375 80.7177734375 81.7998046875 17.6484375 125 17.6484375 c 0
 144.893411826 17.6484375 162.954541787 31.0225626962 176.652413955 52.9999983247 c 0
 194.797977015 95.9999976493 l 0
 199.900203006 114.715423294 202.759765625 135.769703024 202.759765625 158 c 0
 202.759765625 235.282226562 168.200195312 298.3515625 125 298.3515625 c 0
 81.7998046875 298.3515625 47.240234375 235.282226562 47.240234375 158 c 0
17 158 m 0
 17 194.601960103 24.7061336137 228.50696158 37.8026307162 255.999997549 c 0
 62.9999983264 293.947811097 l 0
 80.5051200026 312.811930775 101.860137977 323.900390625 125 323.900390625 c 0
 185 323.900390625 233 249.349609375 233 158 c 0
 233 66.650390625 185 -7.900390625 125 -7.900390625 c 0
 65 -7.900390625 17 66.650390625 17 158 c 0
EndSplineSet
Validated: 1
EndChar

StartChar: A
Encoding: 65 65 35
Width: 250
VWidth: 0
Flags: W
HStem: 174 25<53.5385 195.461> 298.352 25.5488<92.8777 157.225>
VStem: 17 30.2402<-1.56995 239.147> 204 31<-0.785855 236.37>
AnchorPoint: "top" 125 323.9 basechar 0
AnchorPoint: "bottom" 220 1 basechar 0
LayerCount: 2
Fore
SplineSet
55 199 m 1
 100.333007812 199 148.666992188 199 194 199 c 1
 196.997070312 190.666992188 196.31640625 182.333007812 194 174 c 1
 55 174 l 1
 52.001953125 182.333007812 52.68359375 190.666992188 55 199 c 1
17 158 m 0
 17 194.601960103 24.7061336137 228.50696158 37.8026307162 255.999997549 c 0
 62.9999983264 293.947811097 l 0
 80.5051200026 312.811930775 101.860137977 323.900390625 125 323.900390625 c 4
 185 323.900390625 234 249.349609375 234 158 c 0
 234 80 234.73046875 31.525390625 235 1 c 1
 224.666992188 -5.8251953125 214.333007812 -2.6337890625 204 1 c 1
 204 25 202.759765625 135.769703024 202.759765625 158 c 0
 202.759765625 235.282226562 168.200195312 298.3515625 125 298.3515625 c 0
 81.7998046875 298.3515625 47.240234375 235.282226562 47.240234375 158 c 0
 47.240234375 80.7177734375 48 25 48 1 c 17
 39.0400390625 -3.16015625 29.6015625 -5.404296875 18 1 c 9
 18 25 17 66.650390625 17 158 c 0
EndSplineSet
Validated: 1
EndChar

StartChar: D
Encoding: 68 68 36
Width: 210
VWidth: 0
Flags: W
HStem: -4 21G<24.6895 29.186> 0.451172 25.5488<46.4238 121.15> 294.451 25.5488<46.4238 121.921>
VStem: 13.1895 26.6211<0.10602 29 29 323.06> 167.57 30.2402<80.6531 238.53>
LayerCount: 2
Fore
SplineSet
88.810546875 0.451171875 m 0x78
 28.810546875 0.451171875 76.6171875 -0.548828125 46.423828125 -0.548828125 c 1
 46.423828125 24.451171875 l 1
 76.6171875 24.451171875 68.916015625 26 88.810546875 26 c 0
 132.009765625 26 167.5703125 81.1689453125 167.5703125 158.451171875 c 0
 167.5703125 235.733398438 133.009765625 294.451171875 89.810546875 294.451171875 c 0
 46.609375 294.451171875 77.6171875 292.451171875 46.423828125 292.451171875 c 1
 46.423828125 319.451171875 l 1
 77.6171875 319.451171875 29.810546875 320 89.810546875 320 c 0
 112.94921875 320 134.3046875 313.262695312 151.810546875 294.399414062 c 0
 177.0078125 256.451171875 l 0
 190.103515625 228.958007812 197.810546875 195.052734375 197.810546875 158.451171875 c 0
 197.810546875 67.1015625 148.810546875 0.451171875 88.810546875 0.451171875 c 0x78
40.130859375 100 m 0
 40.130859375 72.8935546875 40.5302734375 46.6181640625 40.8388671875 29 c 5
 40.8388671875 29 39.810546875 29 39.892578125 28.1416015625 c 5
 40.060546875 18.716796875 39.810546875 12.095703125 39.810546875 10 c 4
 39.810546875 6.0478515625 37.587890625 2.2373046875 33.810546875 0 c 5
 33.4765625 -0.0966796875 33.966796875 -0.3056640625 33.810546875 -2.6796875 c 5
 32.0947265625 -3.513671875 30.1826171875 -4 28.189453125 -4 c 4xb8
 21.189453125 -4 13.189453125 -1 13.189453125 7 c 4
 13.189453125 23 14.1796875 88.2080078125 14.1796875 100 c 0
 14.1796875 150 13.189453125 203 12.189453125 320 c 1
 21.189453125 325.857421875 29.810546875 327.436523438 38.810546875 320 c 1
 38.822265625 318.661132812 38.8359375 317.328125 38.84765625 316 c 1
 38.8515625 315.666015625 37.853515625 315.333007812 37.857421875 315 c 1
 37.9169921875 308.536132812 37.97265625 302.203125 38.025390625 296 c 1
 38.03125 295.33203125 39.4169921875 294.665039062 39.421875 294 c 1
 39.72265625 258.059570312 40.130859375 120.99609375 40.130859375 100 c 0
EndSplineSet
Validated: 33
EndChar

StartChar: B
Encoding: 66 66 37
Width: 175
VWidth: 0
Flags: W
HStem: -7 25<46.1789 108.948> -4 21G<24.6895 29.186> 154 29<44.3285 112.026> 186 16.7402<43.1664 102.166> 294.54 22.1396<42.9167 105.788> 309 11<37.1573 38>
VStem: 13.1895 20.6211<-3.47987 -0.00512255> 13.3701 24.8701<0.10602 29 29 322.616> 125.1 20.7002<221.981 275.182> 136 24<46.7297 125.17>
LayerCount: 2
Back
SplineSet
40.9999992403 212.359266365 m 5
 49.8252973588 206.337806386 60.8934589477 202.740234375 72.900390625 202.740234375 c 4
 101.700195312 202.740234375 125.099609375 223.439453125 125.099609375 248.639648438 c 4
 125.099609375 273.83984375 101.700195312 294.540039062 72.900390625 294.540039062 c 4
 60.8934596368 294.540039062 50.8251953125 292.021484375 42 286 c 5
 41 290 35.324662525 298.874244163 42.9999987394 310.869387833 c 5
 51.9196496708 314.560861457 61.7282490213 316.6796875 72 316.6796875 c 4
 112.5 316.6796875 145.799804688 283.740234375 145.799804688 251.33984375 c 4
 145.799804688 218.939453125 112.5 186 72 186 c 4
 60.56325654 186 49.7006810871 188.626703768 40.0000012282 193.126220817 c 5
 38 198 35 209 40.9999992403 212.359266365 c 5
13.3701171875 100 m 4
 13.3701171875 150 12.3798828125 203 11.3798828125 320 c 5
 20.3798828125 325.857421875 29 327.436523438 38 320 c 5
 38 316 38.177734375 312 38 309 c 5
 38.0029296875 308.666015625 36.828125 309.333007812 36.8310546875 309 c 5
 36.8916015625 302.536132812 36.947265625 288.203125 37 282 c 5
 37.005859375 281.33203125 38.390625 281.665039062 38.396484375 281 c 5
 38.6962890625 245.059570312 37.900390625 245.508789062 38 218 c 5
 37.814453125 218 35.814453125 218 35.814453125 218 c 5
 36 141 l 5
 36.7094365842 141 38.0501447653 141 38.240234375 141 c 5
 38.333984375 107.06640625 39.3203125 120.995814422 39.3203125 100 c 4
 39.3203125 55.900390625 40.5302734375 46.6181640625 40.8388671875 29 c 5
 40.8388671875 29 40 29 39.892578125 28.1416015625 c 5
 40.060546875 18.716796875 39.810546875 12.095703125 39.810546875 10 c 4
 39.810546875 6.0478515625 37.587890625 2.2373046875 33.810546875 0 c 5
 33.4765625 -0.0966796875 33.966796875 -0.3056640625 33.810546875 -2.6796875 c 5
 32.0947265625 -3.513671875 30.1826171875 -4 28.189453125 -4 c 4
 21.189453125 -4 13.189453125 -1 13.189453125 7 c 4
 13.189453125 23 13.3701171875 88.2080078125 13.3701171875 100 c 4
EndSplineSet
Fore
SplineSet
40.9999992403 212.359266365 m 1x3880
 49.8252973588 206.337806386 60.8934589477 202.740234375 72.900390625 202.740234375 c 0
 101.700195312 202.740234375 125.099609375 223.439453125 125.099609375 248.639648438 c 0
 125.099609375 273.83984375 101.700195312 294.540039062 72.900390625 294.540039062 c 0
 60.8934596368 294.540039062 50.8251953125 292.021484375 42 286 c 1
 41 290 35.324662525 298.874244163 42.9999987394 310.869387833 c 1
 51.9196496708 314.560861457 61.7282490213 316.6796875 72 316.6796875 c 0
 112.5 316.6796875 145.799804688 283.740234375 145.799804688 251.33984375 c 0
 145.799804688 218.939453125 112.5 186 72 186 c 0
 60.56325654 186 49.7006810871 188.626703768 40.0000012282 193.126220817 c 1
 38 198 35 209 40.9999992403 212.359266365 c 1x3880
13.3701171875 100 m 0x75
 13.3701171875 150 12.3798828125 203 11.3798828125 320 c 1
 20.3798828125 325.857421875 29 327.436523438 38 320 c 1
 38 316 38.177734375 312 38 309 c 1
 38.0029296875 308.666015625 36.828125 309.333007812 36.8310546875 309 c 1
 36.8916015625 302.536132812 36.947265625 288.203125 37 282 c 1
 37.005859375 281.33203125 38.390625 281.665039062 38.396484375 281 c 1
 38.6962890625 245.059570312 37.900390625 245.508789062 38 218 c 1
 37.814453125 218 35.814453125 218 35.814453125 218 c 1
 36 141 l 1
 36.7094365842 141 38.0501447653 141 38.240234375 141 c 1x75
 38.333984375 107.06640625 39.3203125 120.995814422 39.3203125 100 c 0
 39.3203125 55.900390625 40.5302734375 46.6181640625 40.8388671875 29 c 1
 40.8388671875 29 40 29 39.892578125 28.1416015625 c 1
 40.060546875 18.716796875 39.810546875 12.095703125 39.810546875 10 c 0
 39.810546875 6.0478515625 37.587890625 2.2373046875 33.810546875 0 c 1
 33.4149946379 -0.0966796875 34 -1 33.810546875 -2.6796875 c 1
 32.0947265625 -3.513671875 30.1826171875 -4 28.189453125 -4 c 0
 21.189453125 -4 13.189453125 -1 13.189453125 7 c 0x76
 13.189453125 23 13.3701171875 88.2080078125 13.3701171875 100 c 0x75
46.5302529321 25.0000005585 m 1
 54.829519628 20.5109012269 64.1636696913 18 74 18 c 0
 108 18 136 48 136 86 c 0
 136 124 108 154 74 154 c 0
 63.4556000891 154 53.4882816807 151.114592488 44.754267908 146.000000596 c 1
 37.5891829789 157.929923571 39.0269388687 161.986697907 43.029268307 175.999999378 c 1
 52.8950953388 180.508607866 63.6868205856 183 75 183 c 0
 122 183 160 140 160 88 c 0
 160 36 122 -7 75 -7 c 0xb040
 64.4354978842 -7 54.3257166126 -4.82744485603 45.0000015284 -0.868463591408 c 1
 42.0619826211 9.68475560534 39.3102577301 16.3449390929 46.5302529321 25.0000005585 c 1
EndSplineSet
Validated: 33
EndChar

StartChar: E
Encoding: 69 69 38
Width: 200
VWidth: 0
Flags: W
HStem: 0 25.5488<87.9702 188.696> 174 25<49.5385 191.461> 294 25.5488<87.1991 188.696>
VStem: 11.3096 30.2402<80.202 238.079>
AnchorPoint: "bottom" 134 0 basechar 0
AnchorPoint: "top" 108 319 basechar 0
LayerCount: 2
Back
SplineSet
175 305 m 5
 273 305 l 5
 273 4 l 5
 175 4 l 5
 175 305 l 5
161 362 m 5
 335 362 l 5
 335 -70 l 5
 161 -70 l 5
 161 362 l 5
EndSplineSet
Fore
SplineSet
51 199 m 1
 96.3330078125 199 144.666992188 199 190 199 c 1
 192.997070312 190.666992188 192.31640625 182.333007812 190 174 c 1
 111 174 l 0
 51 174 l 1
 48.001953125 182.333007812 48.68359375 190.666992188 51 199 c 1
120.309570312 0 m 0
 60.3095703125 0 11.3095703125 66.650390625 11.3095703125 158 c 0
 11.3095703125 194.6015625 19.015625 228.506835938 32.1123046875 256 c 0
 57.3095703125 293.948242188 l 0
 74.814453125 312.811523438 96.169921875 319.548828125 119.309570312 319.548828125 c 0
 179.309570312 319.548828125 157.502929688 320 188.696289062 320 c 25
 188.696289062 293 l 25
 157.502929688 293 162.509765625 294 119.309570312 294 c 0
 76.109375 294 41.5498046875 235.282226562 41.5498046875 158 c 0
 41.5498046875 80.7177734375 77.109375 25.548828125 120.309570312 25.548828125 c 0
 140.203125 25.548828125 158.502929688 25 188.696289062 25 c 25
 188.696289062 0 l 25
 158.502929688 0 180.309570312 0 120.309570312 0 c 0
EndSplineSet
EndChar

StartChar: F
Encoding: 70 70 39
Width: 200
VWidth: 0
Flags: W
HStem: -4 21G<24.25 31.25> 174 25<49.5385 191.461> 294 25.5488<87.1991 188.696>
VStem: 12.75 28<-3.96107 232.263>
LayerCount: 2
Fore
SplineSet
51 199 m 1
 96.3330078125 199 144.666992188 199 190 199 c 1
 192.997070312 190.666992188 192.31640625 182.333007812 190 174 c 1
 111 174 l 0
 51 174 l 1
 48.001953125 182.333007812 48.68359375 190.666992188 51 199 c 1
11.3095703125 158 m 0
 11.3095703125 194.6015625 19.015625 228.506835938 32.1123046875 256 c 0
 57.3095703125 293.948242188 l 0
 74.814453125 312.811523438 96.169921875 319.548828125 119.309570312 319.548828125 c 0
 179.309570312 319.548828125 157.502929688 320 188.696289062 320 c 25
 188.696289062 293 l 25
 157.502929688 293 162.509765625 294 119.309570312 294 c 0
 76.109375 294 41.5498046875 235.282226562 41.5498046875 158 c 0
 40.75 8 l 0
 40.75 2 34.75 -4 27.75 -4 c 0
 20.75 -4 12.75 -1 12.75 7 c 0
 11.3095703125 158 l 0
EndSplineSet
Validated: 1
EndChar

StartChar: G
Encoding: 71 71 40
Width: 250
VWidth: 0
Flags: W
HStem: -7.90039 25.5488<92.8212 157.212> 174 25<140.538 233.168> 294 25.5488<92.0638 188.696>
VStem: 17 30.2402<76.1985 240.094> 202.76 30.2402<79.2031 169.757>
LayerCount: 2
Fore
SplineSet
142 199 m 5
 187.333007812 199 186.666992188 199 232 199 c 5
 234.397643137 192.333630209 234.44156202 185.666635426 233.177239494 179.000015632 c 5
 232.987586818 178 232 178 231 178 c 5
 202 178 l 5
 202 174 l 5
 142 174 l 5
 139.001953125 182.333007812 139.68359375 190.666992188 142 199 c 5
233 165 m 5
 233.08203125 162.348632812 233 160.681631272 233 158 c 4
 233 66.650390625 185 -7.900390625 125 -7.900390625 c 4
 65 -7.900390625 17 66.650390625 17 158 c 4
 17 194.601960103 24.7061336137 228.50696158 37.8026307162 255.999997549 c 4
 62.9999983264 293.947811097 l 4
 80.5051200026 312.811930775 100.860351562 319.548828125 124 319.548828125 c 4
 157.263671875 319.548828125 163 320 188.696289062 320 c 29
 188.696289062 293 l 29
 163 293 148.086914062 294 124 294 c 4
 80.7998046875 294 47.240234375 235.282226562 47.240234375 158 c 4
 47.240234375 80.7177734375 81.7998046875 17.6484375 125 17.6484375 c 4
 144.893411826 17.6484375 162.954541787 31.0225626962 176.652413955 52.9999983247 c 4
 194.797977015 95.9999976493 l 4
 199.900203006 114.715423294 202.759765625 135.769703024 202.759765625 158 c 4
 202.759765625 160.68449772 202.840820312 162.3515625 202.758789062 165 c 5
 202.699070323 166.920249984 204.390224935 168.571386154 206.999999849 169.815290075 c 4
 215.262871463 173.753644432 232.7343078 173.609763176 233 165 c 5
EndSplineSet
Validated: 1
EndChar

StartChar: I
Encoding: 73 73 41
Width: 80
VWidth: 0
Flags: HW
HStem: 0 25<8.10222 71.8995> 294 25<8.10222 68.8995>
VStem: 27.001 27.9736<25.7444 291.5>
AnchorPoint: "top" 40 319 basechar 0
AnchorPoint: "bottom" 40 0 basechar 0
LayerCount: 2
Fore
SplineSet
10.0009765625 25 m 1
 59.8671875 25 20.0009765625 19 70.0009765625 24 c 1
 73.2978515625 24 72.548828125 -1 70.0009765625 -1 c 1
 50.0009765625 -0.106056144589 30.0009765625 0.361712603823 10.0009765625 0 c 1
 6.703125 0 7.453125 25 10.0009765625 25 c 1
10.0009765625 320 m 1
 51 319 17.134765625 319 67.0009765625 319 c 1
 70.2978515625 319 69.548828125 293 67.0009765625 293 c 1
 49.6767578125 295.920898438 29.9482421875 295.129882812 10.0009765625 294 c 1
 6.703125 294 7.453125 320 10.0009765625 320 c 1
27.0009765625 27 m 9
 27.0009765625 288 l 1
 24.61328125 291.649414062 46.2578125 293.8515625 53.9892578125 290 c 1
 54.974609375 27 l 17
 45.650390625 23.611328125 36.3251953125 25.1533203125 27.0009765625 27 c 9
EndSplineSet
EndChar

StartChar: J
Encoding: 74 74 42
Width: 250
VWidth: 0
Flags: W
HStem: -7.90039 25.5488<92.8212 157.212>
VStem: 17 30.2402<76.8531 163.196> 203 30<82.5945 321.858>
LayerCount: 2
Back
SplineSet
234 100 m 0
 234 55.900390625 235.059570312 14 235.059570312 8 c 0
 235.059570312 2 224.75 -4 217.75 -4 c 0
 210.75 -4 202.75 -1 202.75 7 c 0
 202.75 23 203.740234375 88.2080078125 203.740234375 100 c 0
 203.740234375 150 202.75 203 201.75 320 c 5
 210.75 325.857421875 219.75 327.436523438 228.75 320 c 5
 229.75 215 234 144.099609375 234 100 c 0
EndSplineSet
Fore
SplineSet
201.75 320 m 5
 210.75 325.857421875 219.75 327.436523438 228.75 320 c 5
 229.75 215 233 249.349609375 233 158 c 4
 233 66.650390625 185 -7.900390625 125 -7.900390625 c 4
 65 -7.900390625 17 66.650390625 17 158 c 5
 24.7068839037 164.223662125 31.6626484126 172.417122291 47.240234375 158 c 5
 47.240234375 80.7177734375 81.7998046875 17.6484375 125 17.6484375 c 4
 144.893411826 17.6484375 162.954541787 31.0225626962 176.652413955 52.9999983247 c 4
 194.797977015 95.9999976493 l 4
 199.900203006 114.715423294 203 135.76953125 203 158 c 4
 203 235.282226562 202.75 203 201.75 320 c 5
EndSplineSet
Validated: 1
EndChar

StartChar: K
Encoding: 75 75 43
Width: 205
VWidth: 0
Flags: W
HStem: -2 25.5488<119.592 194.184> 168.002 21<49.2511 110.727>
VStem: 11.375 28<-3.96107 323.06> 48.3848 21.2402<87.7707 152.392> 165.933 26.6924<250.068 322.021>
LayerCount: 2
Back
SplineSet
56.625 198 m 1
 101.958007812 198 150.291992188 198 195.625 198 c 1
 198.622070312 189.666992188 197.94140625 181.333007812 195.625 173 c 1
 149.291015625 173 102.958007812 173 56.625 173 c 1
 53.626953125 181.333007812 54.30859375 189.666992188 56.625 198 c 1
EndSplineSet
Fore
SplineSet
69.625 146 m 5
 69.625 68.7177734375 113.734375 23.548828125 156.934570312 23.548828125 c 4
 176.828125 23.548828125 163.431640625 23 193.625 23 c 21
 195.124023438 14.6669921875 194.783203125 6.3330078125 193.625 -2 c 13
 163.431640625 -2 216.934570312 -2 156.934570312 -2 c 4
 96.9345703125 -2 48.384765625 54.650390625 48.384765625 146 c 5
 50.0751953125 165 62.0751953125 154 69.625 146 c 5
165.932617188 319.998046875 m 1
 170.893554688 320.6796875 188.190429688 330.245117188 192.625 319 c 1
 192.625 227.650390625 146.317382812 168.001953125 86.3173828125 168.001953125 c 0
 26.3173828125 168.001953125 79.8203125 168.001953125 49.626953125 168.001953125 c 1
 48.46875 176.334960938 48.1259765625 180.666992188 49.625 189 c 1
 86.3173828125 193.55078125 l 0
 129.517578125 193.55078125 165.932617188 242.715820312 165.932617188 319.998046875 c 1
38.3154296875 100 m 0
 38.3154296875 55.900390625 39.375 14 39.375 8 c 0
 39.375 2 33.375 -4 26.375 -4 c 0
 19.375 -4 11.375 -1 11.375 7 c 0
 11.375 23 12.365234375 88.2080078125 12.365234375 100 c 0
 12.365234375 150 11.375 203 10.375 320 c 1
 19.375 325.857421875 28.375 327.436523438 37.375 320 c 1
 38.375 215 38.3154296875 144.099609375 38.3154296875 100 c 0
EndSplineSet
Validated: 33
EndChar

StartChar: L
Encoding: 76 76 44
Width: 175
VWidth: 0
Flags: W
HStem: 0 25<45.7706 161.583>
VStem: 13.375 23<-2.75441 323.06>
LayerCount: 2
Fore
SplineSet
46.625 25 m 5
 91.9580078125 25 115.291992188 24 160.625 24 c 5
 163.622070312 15.6669921875 162.94140625 7.3330078125 160.625 -1 c 5
 46.625 0 l 5
 43.626953125 8.3330078125 44.30859375 16.6669921875 46.625 25 c 5
40.3154296875 100 m 4
 40.3154296875 73.9013671875 41.322265625 47.572265625 41.625 30 c 4
 36.0419921875 30 l 5
 36.2275390625 19.494140625 36.375 12.2412109375 36.375 10 c 4
 36.375 5.5859375 38.1279296875 -0.8271484375 33.625 -2.8525390625 c 5
 32.0068359375 -3.5810546875 30.2255859375 -4 28.375 -4 c 4
 21.375 -4 13.375 -1 13.375 7 c 4
 13.375 23 14.365234375 88.2080078125 14.365234375 100 c 4
 14.365234375 150 13.375 203 12.375 320 c 5
 21.375 325.857421875 30.375 327.436523438 39.375 320 c 5
 40.375 215 40.3154296875 144.099609375 40.3154296875 100 c 4
EndSplineSet
Validated: 33
EndChar

StartChar: M
Encoding: 77 77 45
Width: 250
VWidth: 0
Flags: W
HStem: -5 21G<30.5 37.5 211.5 218.5> 167 25.5488<94.2851 157.458>
VStem: 21 28<-4.96107 207.298 251.671 319.504> 200 28<-4.96107 207.298 250.498 319.161>
LayerCount: 2
Fore
SplineSet
21 7 m 4
 21.990234375 208 l 5
 30.990234375 215.436523438 40 208.857421875 49 203 c 5
 49 6 l 4
 49 -2 41 -5 34 -5 c 4
 27 -5 21 1 21 7 c 4
228 7 m 4
 228 1 222 -5 215 -5 c 4
 208 -5 200 -2 200 6 c 4
 200 203 l 5
 209 208.857421875 218.009765625 215.436523438 227.009765625 208 c 5
 228 7 l 4
232.3125 315 m 5
 226.231445312 232.487304688 180.942382812 167 125.138671875 167 c 4
 68.884765625 167 23.1787109375 232.532226562 17.69140625 316 c 5
 17.3251953125 321.55859375 47.7255859375 321.86328125 48.138671875 316 c 5
 52.98828125 247.111328125 85.3271484375 192.548828125 125.138671875 192.548828125 c 4
 145.032226562 192.548828125 163.092773438 205.922851562 176.791015625 227.900390625 c 4
 194.936523438 270.900390625 l 4
 198.647460938 284.512695312 201.038085938 300.361328125 202.138671875 316 c 5
 202.551757812 321.86328125 232.138671875 322 232.3125 315 c 5
EndSplineSet
Validated: 1
EndChar

StartChar: N
Encoding: 78 78 46
Width: 205
VWidth: 0
Flags: W
HStem: -4 21G<22.5 29.5 176.75 183.75>
VStem: 13 28<-3.96107 289.793> 170 23.25<-4.893 322.06>
AnchorPoint: "top" 106 319 basechar 0
LayerCount: 2
Back
SplineSet
13 8 m 4
 12.990234375 209 l 5
 21.990234375 216.436523438 31 209.857421875 40 204 c 5
 41 7 l 4
 41 -1 33 -4 26 -4 c 4
 19 -4 13 2 13 8 c 4
EndSplineSet
Fore
SplineSet
37 309 m 1
 38 312 37.111328125 315.788085938 43 319 c 0
 54 325 59 316 59 316 c 1
 166 7 l 1
 166 7 166 -2 159 -4 c 0
 152 -6 145 -1 145 -1 c 1
 37 309 l 1
13 8 m 0
 12.990234375 291 l 1
 21.990234375 298.436523438 31 291.857421875 40 286 c 1
 41 7 l 0
 41 -1 33 -4 26 -4 c 0
 19 -4 13 2 13 8 c 0
192.190429688 99 m 0
 192.190429688 54.900390625 193.25 13 193.25 7 c 0
 193.25 1 187.25 -5 180.25 -5 c 0
 173.25 -5 171.940285 -0.761140001163 170 7 c 0
 169 11 168 13 165.346169928 19.9999994592 c 0
 164.25 319 l 1
 173.25 324.857421875 182.25 326.436523438 191.25 319 c 1
 192.25 214 192.190429688 143.099609375 192.190429688 99 c 0
EndSplineSet
EndChar

StartChar: S
Encoding: 83 83 47
Width: 215
VWidth: 0
Flags: W
HStem: -2 25.5488<20.7601 122.395> 174 25<52.7266 194.894> 174 16<21.148 52.7266> 294 25.5488<89.4522 186.423>
VStem: 19.2725 31.4541<196.045 251.437> 164.486 30.2402<80.4122 169.757>
LayerCount: 2
Fore
SplineSet
21.7265625 190 m 5xbc
 52.7265625 194 l 5
 52.7265625 199 l 5
 193.7265625 199 l 5
 196.124023438 192.333984375 196.16796875 185.666992188 194.903320312 179 c 5
 194.713867188 178 193.7265625 178 192.7265625 178 c 5
 163.7265625 178 l 5
 163.7265625 174 l 5xdc
 23.7265625 174 l 5
 20.8623046875 177 20.0810546875 186 21.7265625 190 c 5xbc
19.2724609375 199 m 5
 22.62109375 220.9921875 27.1083984375 238.322265625 35.529296875 256 c 4
 60.7265625 293.948242188 l 4
 78.232421875 312.811523438 98.5869140625 319.548828125 121.7265625 319.548828125 c 4
 154.990234375 319.548828125 160.7265625 320 186.422851562 320 c 29
 186.422851562 293 l 29
 160.7265625 293 145.813476562 294 121.7265625 294 c 4
 87.416015625 294 60.8916015625 258.9609375 50.7265625 205 c 5
 49.431640625 202 39.9765625 195.340820312 32.7265625 196 c 4
 21.7265625 197 21.431640625 196 19.2724609375 199 c 5
87.7265625 23.548828125 m 5
 107.620117188 23.548828125 124.680664062 31.0224609375 138.37890625 53 c 4
 156.524414062 96 l 4
 161.626953125 114.715820312 164.486328125 135.76953125 164.486328125 158 c 4
 164.486328125 160.684570312 164.567382812 162.3515625 164.485351562 165 c 5
 164.42578125 166.919921875 166.1171875 168.571289062 168.7265625 169.815429688 c 4
 176.989257812 173.75390625 194.4609375 173.609375 194.7265625 165 c 5
 194.80859375 162.348632812 194.7265625 160.681640625 194.7265625 158 c 4
 194.7265625 66.650390625 147.7265625 -2 87.7265625 -2 c 5
 57.3271484375 -2 20.7265625 -2 20.7265625 -2 c 5
 20.7265625 24 l 5
 20.7265625 24 66.943359375 23.548828125 87.7265625 23.548828125 c 5
EndSplineSet
Validated: 1
EndChar

StartChar: T
Encoding: 84 84 48
Width: 200
VWidth: 0
Flags: W
HStem: -4 21G<97.877 104.877> 294 25<13.0597 186.944>
VStem: 86.377 28<-3.96107 289.688>
LayerCount: 2
Fore
SplineSet
86.0009765625 294 m 1
 15.251953125 294 l 1
 10.7548828125 302.333007812 11.77734375 310.666992188 15.251953125 319 c 1
 83.2509765625 319 116.752929688 319 184.751953125 319 c 1
 189.247070312 310.666992188 188.2265625 302.333007812 184.751953125 294 c 1
 113.000976562 294 l 9
 113.000976562 297 l 25
 86.0009765625 297 l 25
 86.0009765625 294 l 1
114.376953125 8 m 0
 114.376953125 2 108.376953125 -4 101.376953125 -4 c 0
 94.376953125 -4 86.376953125 -1 86.376953125 7 c 0
 86.0009765625 288 l 1
 92.0009765625 291 108.000976562 291 113.000976562 288 c 1
 114.376953125 8 l 0
EndSplineSet
Validated: 1
EndChar

StartChar: U
Encoding: 85 85 49
Width: 250
VWidth: 0
Flags: HW
HStem: -7.90039 25.5488<93.1431 157.176>
VStem: 17.0173 30.2307<77.3481 322.343> 203 30<82.5945 321.031>
AnchorPoint: "top" 125 295 basechar 0
AnchorPoint: "bottom" 125 -5 basechar 0
LayerCount: 2
Fore
SplineSet
203 319 m 1
 212 324.857421875 222 324 230 319 c 1
 231 214 233 249.349609375 233 158 c 0
 233 66.650390625 185 -7.900390625 125 -7.900390625 c 0
 65.6581623418 -7.900390625 18.0545036724 65.0238105476 17.0172795899 154.999996651 c 0
 17.0057757022 155.997925594 16.759765625 317.998046875 16.759765625 319 c 1
 26.759765619 325.940788573 36.7597656308 325.402628054 47 319 c 1
 47 318.33203125 47.2428143786 156.665586502 47.2479576675 156.000002837 c 0
 47.8380856508 79.6326129372 82.1730649035 17.6484375 125 17.6484375 c 4
 144.893411826 17.6484375 162.954541787 31.0225626962 176.652413955 52.9999983247 c 0
 194.797977015 95.9999976493 l 0
 199.900203006 114.715423294 203 135.76953125 203 158 c 0
 203 235.282226562 204 202 203 319 c 1
EndSplineSet
EndChar

StartChar: V
Encoding: 86 86 50
Width: 260
VWidth: 0
Flags: W
VStem: 15.1904 229.625
LayerCount: 2
Back
SplineSet
244.815429688 309 m 5
 136.815429688 -1 l 5
 136.815429688 -1 129.815429688 -6 122.815429688 -4 c 4
 115.815429688 -2 115.815429688 7 115.815429688 7 c 5
 222.815429688 316 l 5
 222.815429688 316 227.815429688 325 238.815429688 319 c 4
 244.704101562 315.788085938 243.815429688 312 244.815429688 309 c 5
96.1904296875 10 m 6
 15.1904296875 319 l 5
 24.1904296875 326.436523438 30.1904296875 324.857421875 39.1904296875 319 c 5
 116.469726562 20 l 4
 113.815429688 13 112.815429688 11 111.815429688 7 c 4
 108.509765625 -6.2216796875 98.8115234375 0 96.1904296875 10 c 6
EndSplineSet
Fore
SplineSet
15.1904296875 309 m 1
 16.1904296875 312 15.3017578125 315.788085938 21.1904296875 319 c 0
 32.1904296875 325 37.1904296875 316 37.1904296875 316 c 1
 127.469726562 7 l 1
 127.469726562 7 127.469726562 -2 120.469726562 -4 c 0
 113.469726562 -6 106.469726562 -1 106.469726562 -1 c 1
 15.1904296875 309 l 1
147.094726562 10 m 6
 143.944335938 0.16796875 134.775390625 -6.2216796875 131.469726562 7 c 4
 130.469726562 11 129.469726562 13 126.815429688 20 c 4
 220.815429688 315 l 5
 229.815429688 320.857421875 235.815429688 322.436523438 244.815429688 315 c 5
 147.094726562 10 l 6
EndSplineSet
Validated: 1
EndChar

StartChar: W
Encoding: 87 87 51
Width: 400
VWidth: 0
Flags: W
VStem: 201.526 15.5146<178.965 205.851>
LayerCount: 2
Fore
SplineSet
200.041015625 188 m 1
 201.791015625 202 198.15234375 202.788085938 204.041015625 206 c 0
 215.041015625 212 217.041015625 203 217.041015625 203 c 1
 274.416015625 6 l 1
 274.416015625 6 274.416015625 -3 267.416015625 -5 c 0
 260.416015625 -7 253.416015625 -2 253.416015625 -2 c 1
 201.526367188 174 l 1
 200.041015625 188 l 1
294.041015625 9 m 2
 290.890625 -0.83203125 281.720703125 -7.2216796875 278.416015625 6 c 0
 277.416015625 10 276.416015625 12 273.76171875 19 c 4
 367.76171875 314 l 1
 376.76171875 319.857421875 382.76171875 321.436523438 391.76171875 314 c 1
 294.041015625 9 l 2
8.23046875 309 m 1
 9.23046875 312 8.341796875 315.788085938 14.23046875 319 c 0
 25.23046875 325 30.23046875 316 30.23046875 316 c 1
 120.509765625 7 l 1
 120.509765625 7 120.509765625 -2 113.509765625 -4 c 0
 106.509765625 -6 99.509765625 -1 99.509765625 -1 c 1
 8.23046875 309 l 1
140.134765625 10 m 2
 137.013671875 0.1630859375 127.81640625 -6.2216796875 124.509765625 7 c 0
 123.509765625 11 122.509765625 13 119.85546875 20 c 0
 184.041015625 224 l 1
 193.041015625 229.857421875 193.041015625 235.436523438 202.041015625 228 c 1
 191.041015625 192 l 1
 192.174804688 174 l 1
 140.134765625 10 l 2
EndSplineSet
Validated: 1
EndChar

StartChar: X
Encoding: 88 88 52
Width: 250
VWidth: 0
Flags: W
HStem: -2 322
VStem: 27 208
LayerCount: 2
Fore
SplineSet
106 212 m 1
 41 310 l 1
 42 313 41.111328125 316.788085938 47 320 c 0
 58 326 63 317 63 317 c 1
 119 233 l 1
 119.272510499 219.551818434 122.191449983 202.398636175 106 212 c 1
143.838393221 192 m 1
 235 11 l 1
 235 11 235 2 228 0 c 0
 221 -2 214 3 214 3 c 1
 128.565883092 174 l 1
 131.072676221 187.623109006 133.401806801 201.770334943 143.838393221 192 c 1
126.562860335 227 m 5
 183 316 l 5
 183 316 188 325 199 319 c 4
 204.888671875 315.788085938 204 312 205 309 c 5
 145.371679017 213 l 5
 126.863979901 206.772479739 126.86459894 217.020817239 126.562860335 227 c 5
126.325607333 179 m 1
 105.986913716 132 l 0
 48 -2 l 1
 48 -2 41 -7 34 -5 c 0
 27 -3 27 6 27 6 c 1
 109.18245038 194 l 1
 116.309861817 195.069113277 124.313814566 199.90307546 126.325607333 179 c 1
EndSplineSet
Validated: 1
EndChar

StartChar: Y
Encoding: 89 89 53
Width: 250
VWidth: 0
Flags: W
HStem: 167 25.5488<94.2851 157.458>
VStem: 17.6914 30.4473<250.889 319.615> 110 28<-6.96107 157.812> 202.139 30.1738<253.76 319.515>
AnchorPoint: "top" 125 307 basechar 0
LayerCount: 2
Fore
SplineSet
138 5 m 0
 138 -1 132 -7 125 -7 c 0
 118 -7 110 -4 110 4 c 0
 112 155 l 1
 121 160.857421875 129 162.436523438 138 155 c 1
 138 5 l 0
232.3125 315 m 1
 226.231445312 232.487304688 180.942382812 167 125.138671875 167 c 0
 68.884765625 167 23.1787109375 232.532226562 17.69140625 316 c 1
 17.3251953125 321.55859375 47.7255859375 321.86328125 48.138671875 316 c 1
 52.98828125 247.111328125 85.3271484375 192.548828125 125.138671875 192.548828125 c 0
 145.032226562 192.548828125 163.092773438 205.922851562 176.791015625 227.900390625 c 0
 194.936523438 270.900390625 l 0
 198.647460938 284.512695312 201.038085938 300.361328125 202.138671875 316 c 1
 202.551757812 321.86328125 232.138671875 322 232.3125 315 c 1
EndSplineSet
EndChar

StartChar: Z
Encoding: 90 90 54
Width: 170
VWidth: 0
Flags: W
HStem: -2 25.041<36 150.333> -2 18<19.3364 34> 295 25<13.5385 133> 307 11.709<138 147.69>
VStem: 3 159
LayerCount: 2
Fore
SplineSet
36 23.041015625 m 0x88
 68.6806640625 23.228515625 109.184570312 24 149 24 c 1
 151.997070312 15.6669921875 151.31640625 7.3330078125 149 -1 c 1
 21 -2 l 1
 18.841796875 4 18.5908203125 10 19.4833984375 16 c 0
 34 16 l 1x48
 36 23.041015625 l 0x88
15 320 m 1x28
 60.3330078125 320 100.666015625 318.708984375 145.999023438 318.708984375 c 1
 147.403320312 314.805664062 148 310.903320312 148 307 c 0x18
 138 305 l 1
 133 294 l 1
 15 295 l 1
 12.001953125 303.333007812 12.68359375 311.666992188 15 320 c 1x28
28.625 27 m 2
 23.91796875 17.82421875 19 23 12 19 c 0
 8.419921875 16.9541015625 5.654296875 14 3 21 c 0
 138 287 l 1
 148.333007812 300.876953125 154.333007812 302.456054688 162 287 c 1
 28.625 27 l 2
EndSplineSet
Validated: 1
EndChar

StartChar: hyphen
Encoding: 45 45 55
Width: 130
VWidth: 0
Flags: W
HStem: 97 22<10.4474 119.552>
VStem: 12.5 105.2
LayerCount: 2
Back
SplineSet
48.5 119 m 5
 192.5 119 l 5
 194.3671875 111.666992188 195.874023438 104.333007812 192.5 97 c 5
 48.5 97 l 5
 45.833984375 104.333007812 45.833984375 111.666992188 48.5 119 c 5
162.5 33.341796875 m 4
 170.33984375 37.33203125 192.540039062 19.119140625 178.5 11.6142578125 c 4
 161.755859375 2.6640625 141.086914062 -2 117.490234375 -2 c 4
 91.8798828125 -2 70.80859375 5.3759765625 54.490234375 17.2431640625 c 4
 19.4443359375 65 l 4
 15.4921875 76.3056640625 13.490234375 88.2080078125 13.490234375 100 c 4
 13.490234375 150 50.490234375 203 122.490234375 203 c 4
 194.490234375 203 228.5 156 228.5 98 c 5
 220.5 93 205.752929688 95.8984375 200.5 100 c 5
 200.5 116.024414062 196.380859375 130.384765625 188.83984375 142.17578125 c 4
 144.740234375 172.952148438 l 4
 137.737304688 174.686523438 130.2109375 175.599609375 122.240234375 175.599609375 c 4
 75.4404296875 175.599609375 39.4404296875 144.099609375 39.4404296875 100 c 4
 39.4404296875 55.900390625 74.5400390625 24.400390625 121.33984375 24.400390625 c 4
 136.868164062 24.400390625 150.865234375 27.419921875 162.5 33.341796875 c 4
-4.599609375 200 m 1
 40.7333984375 200 89.0673828125 200 134.400390625 200 c 1
 137.397460938 191.666992188 136.716796875 183.333007812 134.400390625 175 c 1
 -4.599609375 175 l 1
 -7.59765625 183.333007812 -6.916015625 191.666992188 -4.599609375 200 c 1
EndSplineSet
Fore
SplineSet
12.5 119 m 5
 62.3662109375 119 67.833984375 119 117.700195312 119 c 5
 120.997070312 119 120.047851562 97 117.5 97 c 5
 12.2998046875 97 l 5
 9.001953125 97 9.9521484375 119 12.5 119 c 5
EndSplineSet
Validated: 1
EndChar

StartChar: AE
Encoding: 198 198 56
Width: 355
VWidth: 0
Flags: W
HStem: 0 25<243.167 338.833> 174 25<52.3829 193.811 241.167 336.617> 298.352 25.5488<91.3775 155.725 194.761 337.77>
VStem: 15.5 30.2402<-1.56995 239.147> 202.5 31<-0.785855 236.37>
LayerCount: 2
Fore
SplineSet
186.5 319 m 1
 231.833007812 319 292.166992188 318 337.5 318 c 1
 340.497070312 309.666992188 339.81640625 301.333007812 337.5 293 c 1
 291.166015625 293 244.833007812 293 198.5 293 c 1
 195.501953125 301.333007812 184.18359375 310.666992188 186.5 319 c 1
244.5 25 m 1
 289.833007812 25 292.166992188 26 337.5 26 c 1
 340.497070312 17.6669921875 339.81640625 9.3330078125 337.5 1 c 1
 291.166992188 1 290.833007812 0 244.5 0 c 1
 241.501953125 8.3330078125 242.18359375 16.6669921875 244.5 25 c 1
242.5 200 m 1
 287.833007812 200 290.166992188 201 335.5 201 c 1
 338.497070312 192.666992188 337.81640625 184.333007812 335.5 176 c 1
 289.166992188 176 288.833007812 175 242.5 175 c 1
 239.501953125 183.333007812 240.18359375 191.666992188 242.5 200 c 1
53.5 199 m 1
 98.8330078125 199 147.166992188 199 192.5 199 c 1
 195.497070312 190.666992188 194.81640625 182.333007812 192.5 174 c 1
 53.5 174 l 1
 50.501953125 182.333007812 51.18359375 190.666992188 53.5 199 c 1
15.5 158 m 0
 15.5 194.6015625 23.2060546875 228.506835938 36.302734375 256 c 0
 61.5 293.948242188 l 0
 79.0048828125 312.811523438 100.359375 323.900390625 123.5 323.900390625 c 0
 183.5 323.900390625 232.5 249.349609375 232.5 158 c 0
 232.5 80 233.23046875 31.525390625 233.5 1 c 1
 223.166992188 -5.8251953125 212.833007812 -2.6337890625 202.5 1 c 1
 202.5 25 201.259765625 135.76953125 201.259765625 158 c 0
 201.259765625 235.282226562 166.700195312 298.3515625 123.5 298.3515625 c 0
 80.2998046875 298.3515625 45.740234375 235.282226562 45.740234375 158 c 0
 45.740234375 80.7177734375 46.5 25 46.5 1 c 17
 37.5400390625 -3.16015625 28.1015625 -5.404296875 16.5 1 c 9
 16.5 25 15.5 66.650390625 15.5 158 c 0
EndSplineSet
Validated: 1
EndChar

StartChar: Oslash
Encoding: 216 216 57
Width: 250
VWidth: 0
Flags: W
HStem: -7.90039 25.5488<92.8212 157.212> 298.352 25.5488<92.8777 157.179>
VStem: 17 30.2402<76.1985 239.515> 202.76 30.2402<79.1234 239.801>
LayerCount: 2
Fore
SplineSet
78.19140625 68 m 1
 158 266 l 1
 158 266 163 266 169 263 c 0
 175 260 174 251 175 248 c 1
 94 51 l 1
 80 57 78.4931640625 58.0205078125 78.19140625 68 c 1
47.240234375 158 m 0
 47.240234375 80.7177734375 81.7998046875 17.6484375 125 17.6484375 c 0
 144.893411826 17.6484375 162.954541787 31.0225626962 176.652413955 52.9999983247 c 0
 194.797977015 95.9999976493 l 0
 199.900203006 114.715423294 202.759765625 135.769703024 202.759765625 158 c 0
 202.759765625 235.282226562 168.200195312 298.3515625 125 298.3515625 c 0
 81.7998046875 298.3515625 47.240234375 235.282226562 47.240234375 158 c 0
17 158 m 0
 17 194.601960103 24.7061336137 228.50696158 37.8026307162 255.999997549 c 0
 62.9999983264 293.947811097 l 0
 80.5051200026 312.811930775 101.860137977 323.900390625 125 323.900390625 c 0
 185 323.900390625 233 249.349609375 233 158 c 0
 233 66.650390625 185 -7.900390625 125 -7.900390625 c 0
 65 -7.900390625 17 66.650390625 17 158 c 0
EndSplineSet
Validated: 1
EndChar

StartChar: ae
Encoding: 230 230 60
Width: 460
VWidth: 0
Flags: W
HStem: -2.17578 26.4004<298.825 397.839> 97 22<40.7256 187.845 267.165 414.284> 175.424 27.4004<35.697 163.506 303.197 372.046>
VStem: 11.165 28<55.3788 100.16> 420.835 28<96.6646 141.445>
LayerCount: 2
Fore
SplineSet
268.834960938 118.82421875 m 5
 412.834960938 118.82421875 l 5
 414.702148438 111.491210938 416.208007812 104.157226562 412.834960938 96.82421875 c 5
 268.834960938 96.82421875 l 5
 266.16796875 104.157226562 266.16796875 111.491210938 268.834960938 118.82421875 c 5
342.825195312 202.82421875 m 4
 414.825195312 202.82421875 448.834960938 155.82421875 448.834960938 97.82421875 c 5
 440.834960938 92.82421875 426.086914062 95.72265625 420.834960938 99.82421875 c 5
 420.834960938 115.848632812 416.715820312 130.208984375 409.174804688 142 c 4
 365.075195312 172.776367188 l 4
 358.072265625 174.510742188 350.545898438 175.423828125 342.575195312 175.423828125 c 4
 295.775390625 175.423828125 291.174804688 142 280.174804688 130 c 13
 254.174804688 130 l 21
 273.174804688 155 270.825195312 202.82421875 342.825195312 202.82421875 c 4
341.674804688 24.224609375 m 4
 357.203125 24.224609375 371.200195312 27.244140625 382.834960938 33.166015625 c 4
 390.674804688 37.15625 412.875 18.943359375 398.834960938 11.4384765625 c 4
 382.090820312 2.48828125 361.421875 -2.17578125 337.825195312 -2.17578125 c 4
 312.21484375 -2.17578125 291.143554688 5.2001953125 274.825195312 17.0673828125 c 4
 239.779296875 64.82421875 l 4
 235.827148438 76.1298828125 223.174804688 98 213.174804688 119 c 29
 192.174804688 137 183.174804688 151 159.174804688 165 c 28
 145.174804688 173 150.174804688 171 118.325195312 172.599609375 c 4
 102.81640625 173.37890625 69.1748046875 171 37.1748046875 170 c 5
 32.4443359375 178.484375 31.2666015625 187.856445312 37.1748046875 199 c 13
 70.1748046875 199 98.578125 199 122.174804688 199 c 4
 147.78515625 199 168.856445312 191.624023438 185.174804688 179.756835938 c 4
 247.174804688 122 l 4
 251.126953125 110.694335938 257.174804688 90 264.174804688 74 c 5
 272.174804688 63 294.875 24.224609375 341.674804688 24.224609375 c 4
186.174804688 97 m 5
 42.1748046875 97 l 5
 40.3076171875 104.333007812 38.8017578125 111.666992188 42.1748046875 119 c 5
 186.174804688 119 l 5
 188.841796875 111.666992188 188.841796875 104.333007812 186.174804688 97 c 5
124.424804688 22.400390625 m 5
 125.890625 21.201171875 188.401367188 34.267578125 192.174804688 42 c 5
 196.241210938 48.1630859375 225.728515625 52.455078125 226.174804688 40 c 5
 225.174804688 22 189.174804688 -6 117.174804688 -6 c 4
 45.1748046875 -6 11.1650390625 41 11.1650390625 99 c 5
 19.1650390625 104 33.9130859375 101.1015625 39.1650390625 97 c 5
 39.1650390625 80.9755859375 43.2841796875 66.615234375 50.8251953125 54.82421875 c 4
 94.9248046875 24.0478515625 l 4
 101.927734375 22.3134765625 124.424804688 22.400390625 124.424804688 22.400390625 c 5
EndSplineSet
Validated: 33
EndChar

StartChar: oslash
Encoding: 248 248 61
Width: 240
VWidth: 0
Flags: W
HStem: -2 26.4004<73.8876 166.008> 175.6 27.4004<73.9633 151.211>
VStem: 12.9902 25.9502<61.8722 141.72> 200.04 27.9609<56.1387 142.574>
LayerCount: 2
Fore
SplineSet
154 159 m 1
 173 145 l 25
 89 38 l 1
 82.1529422773 40.4509828183 75.2476461782 42.7725470787 71 51 c 9
 154 159 l 1
38.9404296875 100 m 0
 38.9404296875 55.900390625 74.0400390625 24.400390625 120.83984375 24.400390625 c 0
 167.640625 24.400390625 200.040039062 55.900390625 200.040039062 100 c 0
 200.040039062 116.024414062 195.880859375 130.384765625 188.33984375 142.17578125 c 0
 144.240234375 172.952148438 l 0
 137.237304688 174.686523438 129.7109375 175.599609375 121.740234375 175.599609375 c 0
 74.9404296875 175.599609375 38.9404296875 144.099609375 38.9404296875 100 c 0
116.990234375 -2 m 0
 91.3798828125 -2 70.30859375 5.3759765625 53.990234375 17.2431640625 c 0
 18.9443359375 65 l 0
 14.9921875 76.3056640625 12.990234375 88.2080078125 12.990234375 100 c 0
 12.990234375 150 49.990234375 203 121.990234375 203 c 0
 193.990234375 203 228.000976562 156 228.000976562 98 c 0
 228.000976562 38 184.990234375 -2 116.990234375 -2 c 0
EndSplineSet
Validated: 1
EndChar

StartChar: comma
Encoding: 44 44 62
Width: 90
VWidth: 0
Flags: W
HStem: -40.2998 72.5996
VStem: 12 66
LayerCount: 2
Fore
SplineSet
40.599609375 32.2998046875 m 5
 78 15.7998046875 l 5
 32.900390625 -40.2998046875 l 29
 12 -26 l 29
 40.599609375 32.2998046875 l 5
EndSplineSet
Validated: 1
EndChar

StartChar: exclam
Encoding: 33 33 63
Width: 100
VWidth: 0
Flags: HW
HStem: -1.98047 43.5605<29.4367 70.5633>
VStem: 29.4297 41.1406<-1.97341 41.573 97 458>
LayerCount: 2
Fore
SplineSet
62 192 m 4xa0
 62 147.900390625 69.0595703125 98 69.0595703125 92 c 4
 69.0595703125 86 62.0595703125 85 55.0595703125 85 c 4
 48.0595703125 85 33.0595703125 91 33.0595703125 107 c 4xc0
 33.0595703125 123 36.0498046875 180.208007812 36.0498046875 192 c 4
 36.0498046875 242 34 359 33 476 c 5
 60 448 l 5
 61 343 62 236.099609375 62 192 c 4xa0
29.4296875 19.7998046875 m 4
 29.4296875 31.8994140625 39.109375 41.580078125 50 41.580078125 c 4
 60.890625 41.580078125 70.5703125 31.8994140625 70.5703125 19.7998046875 c 4
 70.5703125 7.7001953125 60.890625 -1.98046875 50 -1.98046875 c 4
 39.109375 -1.98046875 29.4296875 7.7001953125 29.4296875 19.7998046875 c 4
EndSplineSet
EndChar

StartChar: question
Encoding: 63 63 64
Width: 221
VWidth: 0
Flags: W
HStem: -4.1582 47.916<25.31 70.3189> 430 31<22 105.729>
VStem: 25.1875 45.2539<-4.12725 43.7269> 32 28<83.0389 251.214> 139 27<321.045 396.502>
LayerCount: 2
Fore
SplineSet
56 461 m 4xc8
 116.990100626 459.901079785 166 415 166 359 c 4
 166 303 116.697268598 250.930273095 56 257 c 4
 46.0000000041 258.000000007 37.3333333293 260.999999993 30 266 c 13
 26 291 l 5
 56 289 l 4
 102 289 139 320 139 359 c 4
 139 398 102 429 56 429 c 4
 22 430 l 5
 22 461 l 5
 47.1315897906 461.096010863 l 4
 49.4337155044 461.096010863 52.3401729524 461.065942799 56 461 c 4xc8
58.1015625 250 m 5
 60 95 l 6
 60.0498046875 89.001953125 54 83 47 83 c 4
 40 83 32 86 32 94 c 4
 32 248 l 5xd8
 36.0556640625 261.354492188 57.4326171875 248.081054688 58.1015625 250 c 5
25.1875 19.7998046875 m 4xe8
 25.1875 33.109375 35.8349609375 43.7578125 47.814453125 43.7578125 c 4
 59.7939453125 43.7578125 70.44140625 33.109375 70.44140625 19.7998046875 c 4
 70.44140625 6.490234375 59.7939453125 -4.158203125 47.814453125 -4.158203125 c 4
 35.8349609375 -4.158203125 25.1875 6.490234375 25.1875 19.7998046875 c 4xe8
EndSplineSet
Validated: 33
EndChar

StartChar: at
Encoding: 64 64 65
Width: 688
VWidth: 0
Flags: W
HStem: -124 46.2002<244.307 446.138> 25 33<468.145 569.393> 91.5996 30.8008<304.075 384.109> 245.6 30.8008<304.075 383.925> 445.8 46.2002<244.307 443.693>
VStem: 38 45.9004<83.6942 284.306> 252.2 30.5996<143.825 224.175> 405.2 30.5996<143.768 224.175> 604.1 45.9004<88.2813 284.306>
LayerCount: 2
Fore
SplineSet
551.653320312 26.3623046875 m 24
 538 23 530.46484375 25 516 25 c 0
 457 25 454 67 414 92.4140625 c 0
 405 98 392.051757812 105.224609375 390 104.026367188 c 0
 376.474609375 96.125 360.76171875 91.599609375 344 91.599609375 c 0
 293.299804688 91.599609375 252.200195312 133 252.200195312 184 c 0
 252.200195312 235 293.299804688 276.400390625 344 276.400390625 c 0
 394.700195312 276.400390625 435.799804688 235 435.799804688 184 c 0
 435.799804688 165.58203125 430.439453125 148.416015625 421.203125 134 c 0
 419.456054688 131.274414062 432.671875 115.696289062 433.197265625 111 c 0
 433.24609375 110.569335938 433.1875 110.229492188 433 110 c 0
 430.516601562 106.954101562 443.41015625 110.6328125 446 103.65625 c 0
 455.94140625 76.8798828125 483.267578125 58 515 58 c 0
 542.21875 58 570.272460938 70.146484375 586.743164062 89.80859375 c 1
 597.953125 119.041992188 604.099609375 150.802734375 604.099609375 184 c 0
 604.099609375 328.5 487.650390625 445.799804688 344 445.799804688 c 0
 200.349609375 445.799804688 83.900390625 328.5 83.900390625 184 c 0
 83.900390625 39.5 200.349609375 -77.7998046875 344 -77.7998046875 c 0
 406.638671875 -77.7998046875 464.104492188 -55.4970703125 509 -18.3603515625 c 1
 515.616210938 -12.8876953125 556.087890625 -38.552734375 544.091796875 -49 c 1
 490.444335938 -95.72265625 420.500976562 -124 344 -124 c 0
 175 -124 38 14 38 184 c 0
 38 354 175 492 344 492 c 0
 513 492 650 354 650 184 c 0
 650 153.458984375 649.87890625 125.840820312 641.689453125 98 c 0
 637.530273438 83.861328125 631.290039062 69.666015625 621.928710938 55 c 0
 614.90625 44 580 34 551.653320312 26.3623046875 c 24
282.799804688 184 m 0
 282.799804688 150 310.200195312 122.400390625 344 122.400390625 c 0
 377.799804688 122.400390625 405.200195312 150 405.200195312 184 c 0
 405.200195312 218 377.799804688 245.599609375 344 245.599609375 c 0
 310.200195312 245.599609375 282.799804688 218 282.799804688 184 c 0
EndSplineSet
Validated: 33
EndChar

StartChar: slash
Encoding: 47 47 66
Width: 160
VWidth: 0
Flags: W
VStem: 19.0918 122.908
LayerCount: 2
Fore
SplineSet
40.4326171875 -0.5283203125 m 5
 37.1552734375 -4.1328125 19.091796875 -3.5205078125 19.091796875 4 c 5
 118 316 l 5
 127 321.857421875 133 323.436523438 142 316 c 5
 40.4326171875 -0.5283203125 l 5
EndSplineSet
Validated: 1
EndChar

StartChar: less
Encoding: 60 60 67
Width: 190
VWidth: 0
Flags: W
HStem: -7 211
VStem: 12 158
LayerCount: 2
Back
SplineSet
170 25 m 5
 171.831369759 16.8466471545 173.811570859 8.75150443702 169 -2 c 5
 149 -2 184.990234375 -2 116.990234375 -2 c 4
 91.3798828125 -2 70.30859375 5.3759765625 53.990234375 17.2431640625 c 4
 18.9443359375 65 l 4
 14.9921875 76.3056640625 12.990234375 88.2080078125 12.990234375 100 c 4
 12.990234375 150 50 200 122 200 c 4
 194 200 128 200 166 200 c 5
 167.739172332 191.666666667 169.888080426 183.333333333 165 175 c 13
 127 176 129.7109375 175.599609375 121.740234375 175.599609375 c 4
 74.9404296875 175.599609375 38.9404296875 144.099609375 38.9404296875 100 c 4
 38.9404296875 55.900390625 74.0400390625 24.400390625 120.83984375 24.400390625 c 4
 167.640625 24.400390625 165 25 170 25 c 5
EndSplineSet
Fore
SplineSet
164 204 m 29
 165 174 l 29
 44 94 l 29
 170 26 l 29
 169 -7 l 29
 12 97 l 29
 164 204 l 29
EndSplineSet
Validated: 1
EndChar

StartChar: greater
Encoding: 62 62 68
Width: 190
VWidth: 0
Flags: W
HStem: -7 211
VStem: 13 157
LayerCount: 2
Fore
SplineSet
18 204 m 29
 170 97 l 29
 13 -7 l 29
 12 26 l 29
 138 94 l 29
 17 174 l 29
 18 204 l 29
EndSplineSet
Validated: 1
EndChar

StartChar: equal
Encoding: 61 61 69
Width: 160
VWidth: 0
Flags: W
HStem: 119 25<14.1627 144.959> 174.5 25<14.6431 145.44>
VStem: 16.4414 126.24
LayerCount: 2
Fore
SplineSet
16.44140625 144 m 1
 76.2802734375 144 82.841796875 144 142.681640625 144 c 1
 146.637695312 144 145.73828125 119 142.681640625 119 c 1
 16.44140625 119 l 1
 12.4833984375 119 13.3837890625 144 16.44140625 144 c 1
16.921875 199.5 m 1
 76.7607421875 199.5 83.322265625 199.5 143.161132812 199.5 c 1
 147.118164062 199.5 146.21875 174.5 143.161132812 174.5 c 1
 16.921875 174.5 l 1
 12.9638671875 174.5 13.8642578125 199.5 16.921875 199.5 c 1
EndSplineSet
Validated: 1
EndChar

StartChar: semicolon
Encoding: 59 59 70
Width: 90
VWidth: 0
Flags: W
HStem: 86.4395 43.5605<32.4367 73.5633>
VStem: 32.4297 41.1406<86.4465 129.993>
LayerCount: 2
Fore
SplineSet
32.4296875 108.219726562 m 4
 32.4296875 120.319335938 42.109375 130 53 130 c 4
 63.890625 130 73.5703125 120.319335938 73.5703125 108.219726562 c 4
 73.5703125 96.1201171875 63.890625 86.439453125 53 86.439453125 c 4
 42.109375 86.439453125 32.4296875 96.1201171875 32.4296875 108.219726562 c 4
40.599609375 32.2998046875 m 5
 78 15.7998046875 l 5
 32.900390625 -40.2998046875 l 29
 12 -26 l 29
 40.599609375 32.2998046875 l 5
EndSplineSet
Validated: 1
EndChar

StartChar: colon
Encoding: 58 58 71
Width: 90
VWidth: 0
Flags: W
HStem: -1.98047 43.5605<24.4367 65.5633> 86.4395 43.5605<24.4367 65.5633>
VStem: 24.4297 41.1406<-1.97341 41.573 86.4465 129.993>
LayerCount: 2
Fore
SplineSet
24.4296875 19.7998046875 m 0
 24.4296875 31.8994140625 34.109375 41.580078125 45 41.580078125 c 0
 55.890625 41.580078125 65.5703125 31.8994140625 65.5703125 19.7998046875 c 0
 65.5703125 7.7001953125 55.890625 -1.98046875 45 -1.98046875 c 0
 34.109375 -1.98046875 24.4296875 7.7001953125 24.4296875 19.7998046875 c 0
24.4296875 108.219726562 m 0
 24.4296875 120.319335938 34.109375 130 45 130 c 0
 55.890625 130 65.5703125 120.319335938 65.5703125 108.219726562 c 0
 65.5703125 96.1201171875 55.890625 86.439453125 45 86.439453125 c 0
 34.109375 86.439453125 24.4296875 96.1201171875 24.4296875 108.219726562 c 0
EndSplineSet
Validated: 1
EndChar

StartChar: parenleft
Encoding: 40 40 72
Width: 195
VWidth: 0
Flags: W
HStem: 432 30<122.142 147.993>
VStem: 40.0977 30.2402<118.082 339.099>
LayerCount: 2
Fore
SplineSet
148.09765625 -7 m 5
 88.09765625 -7 40.09765625 103.677734375 40.09765625 227 c 4
 40.09765625 276.412109375 47.8037109375 322.184570312 60.900390625 359.299804688 c 4
 86.09765625 410.530273438 l 4
 103.602539062 435.995117188 121.958007812 462 145.09765625 462 c 5
 153.651367188 445.0078125 149.610351562 440.598632812 145.09765625 432 c 5
 101.803710938 421.048828125 70.5751953125 332.134765625 70.337890625 227 c 4
 70.1005859375 121.462890625 107.048828125 38.4267578125 147.09765625 22 c 5
 150.241210938 24.76953125 162.375 0.5595703125 148.09765625 -7 c 5
EndSplineSet
Validated: 33
EndChar

StartChar: parenright
Encoding: 41 41 73
Width: 195
VWidth: 0
Flags: W
HStem: 432 30<40.2025 66.0532>
VStem: 117.857 30.2402<118.082 339.099>
LayerCount: 2
Fore
SplineSet
40.09765625 -7 m 1
 25.8203125 0.5595703125 37.9541015625 24.76953125 41.09765625 22 c 1
 81.146484375 38.4267578125 118.094726562 121.462890625 117.857421875 227 c 0
 117.620117188 332.134765625 86.3916015625 421.048828125 43.09765625 432 c 1
 38.5849609375 440.598632812 34.5439453125 445.0078125 43.09765625 462 c 1
 66.2373046875 462 84.5927734375 435.995117188 102.09765625 410.530273438 c 0
 127.294921875 359.299804688 l 0
 140.391601562 322.184570312 148.09765625 276.412109375 148.09765625 227 c 0
 148.09765625 103.677734375 100.09765625 -7 40.09765625 -7 c 1
EndSplineSet
Validated: 33
EndChar

StartChar: braceleft
Encoding: 123 123 74
Width: 195
VWidth: 0
Flags: W
HStem: 432 30<121.821 147.993>
VStem: 31 30.2402<199.407 237.747> 52.8329 31.4323<77.8864 203.991 232.363 373.044>
LayerCount: 2
Fore
SplineSet
148.09765625 -7 m 5xa0
 106.674319144 -7 70.9706248943 45.7530927347 52.8329082105 118.999996626 c 5xa0
 48.5010360552 136.493721385 55.3538575927 154.872891853 62.7068977062 173.999993024 c 5
 69.1607688981 190.788130356 31 202.15234375 31 220 c 4
 31 232.484375 71.2757779036 250.881502362 65.7664108996 262.999997198 c 5
 56.8217627179 282.674793363 45.8075787655 301.614890058 49.5808156854 318.999996172 c 5
 52.6821068478 333.289126988 56.4848766116 346.78649281 60.900390625 359.299804688 c 4
 86.09765625 410.530273438 l 4
 103.602539062 435.995117188 121.958007812 462 145.09765625 462 c 5
 153.651367188 445.0078125 149.610351562 440.598632812 145.09765625 432 c 5
 115.344837054 424.474046095 91.2903099974 380.127577846 79.0767381258 319.00000332 c 5
 75.6874337373 302.036910231 86.5576395089 283.409619889 95.5415476042 264.00000265 c 5
 101.291755307 251.576753283 61.26953125 232.833007812 61.240234375 220 c 4xc0
 61.1962890625 200.290039062 98.7498047883 187.607078609 92.2434091098 170.000013608 c 5
 85.5316740241 151.83727624 79.820004973 134.819399226 84.2651725259 119.000003695 c 5
 98.5842125673 68.0416190355 122.243872763 32.1942329195 147.09765625 22 c 5
 150.241210938 24.76953125 162.375 0.5595703125 148.09765625 -7 c 5xa0
EndSplineSet
Validated: 33
EndChar

StartChar: bar
Encoding: 124 124 75
Width: 80
VWidth: 0
Flags: W
VStem: 27.0264 27.9736<-1.18868 459.5>
LayerCount: 2
Fore
SplineSet
27.0263671875 0 m 1
 27.01171875 456 l 5
 24.6240234375 459.649414062 46.2685546875 461.8515625 54 458 c 5
 55 0 l 1
 45.67578125 -3.388671875 36.3505859375 -1.8466796875 27.0263671875 0 c 1
EndSplineSet
Validated: 1
EndChar

StartChar: braceright
Encoding: 125 125 76
Width: 195
VWidth: 0
Flags: W
HStem: 432 30<31.1049 57.2764>
VStem: 94.832 31.4326<77.8866 203.991 232.363 373.044> 117.857 30.2402<199.407 237.747>
LayerCount: 2
Fore
SplineSet
31 -7 m 5xc0
 16.72265625 0.5595703125 28.8564453125 24.76953125 32 22 c 5
 56.853515625 32.1943359375 80.513671875 68.0419921875 94.83203125 119 c 5xc0
 99.27734375 134.819335938 93.56640625 151.836914062 86.8544921875 170 c 5
 80.34765625 187.607421875 117.901367188 200.290039062 117.857421875 220 c 4
 117.828125 232.833007812 77.8056640625 251.577148438 83.5556640625 264 c 5
 92.5400390625 283.409179688 103.41015625 302.037109375 100.020507812 319 c 5
 87.8076171875 380.127929688 63.7529296875 424.473632812 34 432 c 5
 29.4873046875 440.598632812 25.4462890625 445.0078125 34 462 c 5
 57.1396484375 462 75.4951171875 435.995117188 93 410.530273438 c 4
 118.197265625 359.299804688 l 4
 122.612304688 346.786132812 126.416015625 333.2890625 129.516601562 319 c 5
 133.290039062 301.615234375 122.276367188 282.674804688 113.331054688 263 c 5
 107.822265625 250.881835938 148.09765625 232.484375 148.09765625 220 c 4xa0
 148.09765625 202.15234375 109.936523438 190.788085938 116.390625 174 c 5
 123.744140625 154.873046875 130.596679688 136.494140625 126.264648438 119 c 5
 108.126953125 45.7529296875 72.4228515625 -7 31 -7 c 5xc0
EndSplineSet
Validated: 33
EndChar

StartChar: plus
Encoding: 43 43 77
Width: 135
VWidth: 0
Flags: HW
HStem: -2 93<54.1381 81.627> 122 74<52.3384 81.3125>
VStem: 53 32<-2.99116 90.8801 122.177 196>
LayerCount: 2
Fore
SplineSet
7 92 m 5
 7 123 l 5
 67 114 l 29
 127 126 l 5
 127 90 l 5
 68 97 l 5
 7 92 l 5
53.69921875 130 m 5
 47 197 l 5
 67 198 l 4
 87 196 l 5
 80 130.958007812 l 5
 80 124.986328125 71.98828125 122 67 122 c 4
 62 122 53.7578799559 122.633789599 53.69921875 130 c 5
53 -2 m 5
 53 30.673828125 53 21 53.99609375 83.03515625 c 5
 53.99609375 88.013671875 62.0146484375 91 68 91 c 4
 73 91 81.5556640625 84.2919921875 81.587890625 77 c 5
 81.9208984375 1.791015625 85 31.0771484375 85 0 c 5
 69.2255859375 -8.3359375 60.5693359375 -3.2646484375 53 -2 c 5
EndSplineSet
EndChar

StartChar: quotesingle
Encoding: 39 39 78
Width: 100
VWidth: 0
Flags: HW
HStem: 341 117<31 69>
VStem: 30 39<341 458>
LayerCount: 2
Fore
SplineSet
31 458 m 1
 70 458 l 1
 67.0498046875 341 l 5
 31.9501953125 341 l 5
 31 458 l 1
EndSplineSet
EndChar

StartChar: quotedbl
Encoding: 34 34 79
Width: 200
VWidth: 0
Flags: W
HStem: 341 117<38 76 124 162>
VStem: 37 39<341 458> 123 39<341 458>
LayerCount: 2
Fore
SplineSet
124 458 m 5
 163 458 l 5
 162 341 l 5
 123 341 l 5
 124 458 l 5
38 458 m 5
 77 458 l 5
 76 341 l 5
 37 341 l 5
 38 458 l 5
EndSplineSet
Validated: 1
EndChar

StartChar: zero
Encoding: 48 48 80
Width: 250
VWidth: 0
Flags: W
HStem: -7.90039 25.5488<93.66 156.82> 298.352 25.5488<92.7589 156.679>
VStem: 17.0943 30.2409<76.2632 152.331 169 239.046> 202.665 30.2409<81.9491 151 167.384 239.046>
LayerCount: 2
Fore
SplineSet
47.3351217937 151 m 1
 49.347203939 76.9453735984 83.111702626 17.6484375 125 17.6484375 c 0
 144.893411826 17.6484375 162.954541787 31.0225626962 176.652413955 52.9999983247 c 1
 194.797977015 95.9999976493 l 2
 199.361550864 112.739598598 202.130990722 131.350286248 202.664878206 151 c 1
 232.905737786 151 l 1
 230.528003277 62.8724255032 183.459943246 -7.900390625 125 -7.900390625 c 0
 66.5400567542 -7.900390625 19.4719967227 62.8724255032 17.0942622143 151 c 1
 27.1745487426 153.787152917 37.2548352653 153.543799731 47.3351217937 151 c 1
202.524829448 169 m 1
 199.429827483 241.178370738 166.131334476 298.3515625 125 298.3515625 c 0
 83.8686655232 298.3515625 50.5701725172 241.178370738 47.475170552 169 c 1
 17.2332733219 169 l 1
 18.6110104905 201.382880475 26.0283912319 231.282732534 37.8026307162 255.999997549 c 2
 62.9999983264 293.947811097 l 1
 80.5051200026 312.811930775 101.860137977 323.900390625 125 323.900390625 c 0
 182.572776178 323.900390625 229.096803834 255.259321107 232.766726678 169 c 1
 222.686094271 166.430385368 212.605461856 163.765113172 202.524829448 169 c 1
EndSplineSet
Validated: 1
EndChar

StartChar: one
Encoding: 49 49 81
Width: 250
VWidth: 0
Flags: W
HStem: 0 25<57.707 117.135 137.583 229.707> 300 20G<125.707 150>
VStem: 119 31<33 273 291 319>
LayerCount: 2
Back
SplineSet
56.947265625 158 m 4
 56.947265625 80.7177734375 91.5068359375 17.6484375 134.70703125 17.6484375 c 4
 154.600585938 17.6484375 172.661132812 31.0224609375 186.359375 53 c 4
 204.504882812 96 l 4
 209.607421875 114.715820312 212.466796875 135.76953125 212.466796875 158 c 4
 212.466796875 235.282226562 177.907226562 298.3515625 134.70703125 298.3515625 c 4
 91.5068359375 298.3515625 56.947265625 235.282226562 56.947265625 158 c 4
26.70703125 158 m 4
 26.70703125 194.6015625 34.4130859375 228.506835938 47.509765625 256 c 4
 72.70703125 293.948242188 l 4
 90.2119140625 312.811523438 111.567382812 323.900390625 134.70703125 323.900390625 c 4
 194.70703125 323.900390625 242.70703125 249.349609375 242.70703125 158 c 4
 242.70703125 66.650390625 194.70703125 -7.900390625 134.70703125 -7.900390625 c 4
 74.70703125 -7.900390625 26.70703125 66.650390625 26.70703125 158 c 4
EndSplineSet
Fore
SplineSet
57.70703125 25 m 1
 105.70703125 25 l 1
 124.374023438 12.0517578125 136.333007812 17.84765625 155 26 c 1
 229.70703125 25 l 1
 229.70703125 0 l 1
 57.70703125 0 l 1
 57.70703125 25 l 1
88.697265625 315.286132812 m 1
 119.70703125 304 l 1
 51.302734375 116.061523438 l 1
 20.29296875 127.34765625 l 1
 88.697265625 315.286132812 l 1
125.70703125 319 m 1
 150 320 l 1
 150 33 l 1
 119 33 l 5
 119 273 l 5
 125.70703125 291 l 1
 125.70703125 300.333007812 125.70703125 309.666992188 125.70703125 319 c 1
EndSplineSet
Validated: 33
EndChar

StartChar: two
Encoding: 50 50 82
Width: 250
VWidth: 0
Flags: W
HStem: 0 26<24.0526 81.2236 136 220> 298.352 25.5488<92.8777 157.179>
VStem: 17 30.2402<156.975 239.147> 202.76 30.2402<120.896 239.801>
LayerCount: 2
Fore
SplineSet
220 26 m 1
 220 0 l 1
 136 0 l 1
 136 26 l 1
 220 26 l 1
28 24 m 1
 81.0126953125 24 202.759765625 99.0052792156 202.759765625 158 c 0
 202.759765625 235.282226562 168.200195312 298.3515625 125 298.3515625 c 0
 81.7998046875 298.3515625 47.240234375 235.282226562 47.240234375 158 c 1
 40 156 27 156 17 158 c 1
 17 194.601960103 24.7061336137 228.50696158 37.8026307162 255.999997549 c 0
 62.9999983264 293.947811097 l 0
 80.5051200026 312.811930775 101.860137977 323.900390625 125 323.900390625 c 0
 185 323.900390625 233 249.349609375 233 158 c 0
 233 66.650390625 88 -1.548828125 28 -1.548828125 c 1
 16.8599957301 7.90967240543 20.6384505788 16.106365743 28 24 c 1
EndSplineSet
Validated: 1
EndChar

StartChar: three
Encoding: 51 51 83
Width: 250
VWidth: 0
Flags: W
HStem: 0 25<37.959 138.63> 174 25<35.1939 177.117> 294 25.5488<37.959 139.456>
VStem: 185.105 30.2402<80.202 238.079>
LayerCount: 2
Back
SplineSet
175.655273438 199 m 5
 177.971679688 190.666992188 178.653320312 182.333007812 175.655273438 174 c 5
 115.655273438 174 l 4
 36.6552734375 174 l 5
 34.3388671875 182.333007812 33.658203125 190.666992188 36.6552734375 199 c 5
 81.98828125 199 130.322265625 199 175.655273438 199 c 5
106.345703125 0 m 4
 46.345703125 0 68.15234375 0 37.958984375 0 c 29
 37.958984375 25 l 29
 68.15234375 25 86.4521484375 25.548828125 106.345703125 25.548828125 c 4
 149.545898438 25.548828125 185.10546875 80.7177734375 185.10546875 158 c 4
 185.10546875 235.282226562 150.545898438 294 107.345703125 294 c 4
 64.1455078125 294 69.15234375 293 37.958984375 293 c 29
 37.958984375 320 l 29
 69.15234375 320 47.345703125 319.548828125 107.345703125 319.548828125 c 4
 130.485351562 319.548828125 151.840820312 312.811523438 169.345703125 293.948242188 c 4
 194.54296875 256 l 4
 207.639648438 228.506835938 215.345703125 194.6015625 215.345703125 158 c 4
 215.345703125 66.650390625 166.345703125 0 106.345703125 0 c 4
EndSplineSet
Fore
SplineSet
175.655273438 199 m 5
 177.971679688 190.666992188 178.653320312 182.333007812 175.655273438 174 c 5
 115.655273438 174 l 4
 36.6552734375 174 l 5
 34.3388671875 182.333007812 33.658203125 190.666992188 36.6552734375 199 c 5
 81.98828125 199 130.322265625 199 175.655273438 199 c 5
106.345703125 0 m 4
 46.345703125 0 68.15234375 0 37.958984375 0 c 29
 37.958984375 25 l 29
 68.15234375 25 86.4521484375 25.548828125 106.345703125 25.548828125 c 4
 149.545898438 25.548828125 185.10546875 80.7177734375 185.10546875 158 c 4
 185.10546875 235.282226562 150.545898438 294 107.345703125 294 c 4
 64.1455078125 294 69.15234375 293 37.958984375 293 c 29
 37.958984375 320 l 29
 69.15234375 320 47.345703125 319.548828125 107.345703125 319.548828125 c 4
 130.485351562 319.548828125 151.840820312 312.811523438 169.345703125 293.948242188 c 4
 194.54296875 256 l 4
 207.639648438 228.506835938 215.345703125 194.6015625 215.345703125 158 c 4
 215.345703125 66.650390625 166.345703125 0 106.345703125 0 c 4
EndSplineSet
Validated: 1
EndChar

StartChar: four
Encoding: 52 52 84
Width: 250
VWidth: 0
Flags: W
HStem: 167 25.5488<94.2851 157.458>
VStem: 17.6914 30.4473<250.889 319.615> 200 28<-4.96107 207.298 250.498 319.161>
LayerCount: 2
Fore
SplineSet
228 7 m 4
 228 1 222 -5 215 -5 c 4
 208 -5 200 -2 200 6 c 4
 200 203 l 5
 209 208.857421875 218.009765625 215.436523438 227.009765625 208 c 5
 228 7 l 4
232.3125 315 m 5
 226.231445312 232.487304688 180.942382812 167 125.138671875 167 c 4
 68.884765625 167 23.1787109375 232.532226562 17.69140625 316 c 5
 17.3251953125 321.55859375 47.7255859375 321.86328125 48.138671875 316 c 5
 52.98828125 247.111328125 85.3271484375 192.548828125 125.138671875 192.548828125 c 4
 145.032226562 192.548828125 163.092773438 205.922851562 176.791015625 227.900390625 c 4
 194.936523438 270.900390625 l 4
 198.647460938 284.512695312 201.038085938 300.361328125 202.138671875 316 c 5
 202.551757812 321.86328125 232.138671875 322 232.3125 315 c 5
EndSplineSet
Validated: 1
EndChar

StartChar: eight
Encoding: 56 56 85
Width: 240
VWidth: 0
Flags: W
HStem: -2 26.4004<73.3924 165.513> 166 18.4492<75.621 142.676> 194.85 16.6328<96.1998 154.236> 306.737 17.2627<96.2476 144.914>
VStem: 12.4951 25.9502<61.8722 139.158> 57.835 16.3477<235.089 285.393> 175.676 17.6152<231.477 285.931> 199.544 27.9609<56.1387 136.676>
LayerCount: 2
Fore
SplineSet
74.1826171875 259.109375 m 4
 74.1826171875 231.327148438 96.2958984375 211.482421875 125.780273438 211.482421875 c 4
 155.263671875 211.482421875 175.67578125 231.327148438 175.67578125 259.109375 c 4
 175.67578125 269.205078125 173.055664062 278.251953125 168.3046875 285.680664062 c 4
 140.522460938 305.069335938 l 4
 136.110351562 306.162109375 131.368164062 306.737304688 126.34765625 306.737304688 c 4
 96.86328125 306.737304688 74.1826171875 286.892578125 74.1826171875 259.109375 c 4
123.354492188 194.849609375 m 4
 107.219726562 194.849609375 93.9453125 199.497070312 83.6640625 206.97265625 c 4
 61.5859375 237.059570312 l 4
 59.095703125 244.181640625 57.8349609375 251.680664062 57.8349609375 259.109375 c 4
 57.8349609375 290.609375 81.14453125 324 126.504882812 324 c 4
 171.864257812 324 193.291015625 294.389648438 193.291015625 257.849609375 c 4
 193.291015625 220.049804688 166.194335938 194.849609375 123.354492188 194.849609375 c 4
38.4453125 100 m 0
 38.4453125 55.900390625 73.544921875 24.400390625 120.344726562 24.400390625 c 0
 167.145507812 24.400390625 199.543945312 55.900390625 199.543945312 100 c 0
 199.543945312 116.024414062 195.645507812 124.78515625 188.104492188 136.576171875 c 0
 143.004882812 163.352539062 l 0
 136.001953125 165.086914062 128.475585938 166 120.504882812 166 c 0
 73.705078125 166 38.4453125 144.099609375 38.4453125 100 c 0
116.495117188 -2 m 0
 90.884765625 -2 69.8134765625 5.3759765625 53.4951171875 17.2431640625 c 0
 18.44921875 65 l 0
 14.4970703125 76.3056640625 12.4951171875 88.2080078125 12.4951171875 100 c 0
 12.4951171875 137.318359375 33.111328125 170.1796875 73.50390625 184.44921875 c 0
 159.504882812 187.953125 l 0
 205.53125 177.037109375 227.504882812 144.627929688 227.504882812 98 c 0
 227.504882812 38 184.495117188 -2 116.495117188 -2 c 0
EndSplineSet
Validated: 1
EndChar

StartChar: five
Encoding: 53 53 86
Width: 250
VWidth: 0
Flags: W
HStem: 0 25<39.2861 139.957> 199 25<69.0282 178.444> 294 25<64.8658 206.789>
VStem: 33.3271 26<205.657 319> 186.433 30.2402<80.8761 205.689>
LayerCount: 2
Fore
SplineSet
33.3271484375 319 m 5
 59.3271484375 319 l 5
 59.3271484375 229 l 5
 54.3271484375 206 l 5
 45.66015625 204.361328125 41.994140625 205.004882812 33.3271484375 206 c 5
 33.3271484375 319 l 5
205.327148438 319 m 5
 207.643554688 310.666992188 208.325195312 302.333007812 205.327148438 294 c 5
 145.327148438 294 l 4
 66.3271484375 294 l 5
 64.0107421875 302.333007812 63.330078125 310.666992188 66.3271484375 319 c 5
 111.66015625 319 159.994140625 319 205.327148438 319 c 5
176.982421875 224 m 1
 179.298828125 215.666992188 179.98046875 207.333007812 176.982421875 199 c 1
 116.982421875 199 l 0
 70.3271484375 201 l 1
 68.0107421875 209.333007812 66.330078125 215.666992188 69.3271484375 224 c 1
 176.982421875 224 l 1
213.518554688 198 m 1
 215.580078125 185.181640625 216.672851562 171.78125 216.672851562 158 c 0
 216.672851562 66.650390625 167.672851562 0 107.672851562 0 c 0
 47.6728515625 0 69.4794921875 0 39.2861328125 0 c 25
 39.2861328125 25 l 25
 69.4794921875 25 87.779296875 25.548828125 107.672851562 25.548828125 c 0
 150.873046875 25.548828125 186.432617188 80.7177734375 186.432617188 158 c 0
 186.432617188 172.397460938 185.233398438 186.150390625 183.001953125 199 c 1
 183.978515625 213.014648438 211.124023438 215.224609375 213.518554688 198 c 1
EndSplineSet
Validated: 1
EndChar

StartChar: six
Encoding: 54 54 87
Width: 240
VWidth: 0
Flags: W
HStem: -2 26.4004<73.3924 165.513> 299 20G<129.431 178>
VStem: 12.4951 25.9502<61.8722 139.151> 199.544 27.9609<56.1387 136.443>
LayerCount: 2
Fore
SplineSet
146 319 m 1
 178 319 l 1
 59.5048828125 182 l 1
 50.837890625 180.361328125 41.171875 181.004882812 32.5048828125 182 c 1
 146 319 l 1
38.4453125 100 m 0
 38.4453125 55.900390625 73.544921875 24.400390625 120.344726562 24.400390625 c 0
 167.145507812 24.400390625 199.543945312 55.900390625 199.543945312 100 c 0
 199.543945312 116.024414062 195.645507812 124.78515625 188.104492188 136.576171875 c 0
 143.004882812 163.352539062 l 0
 136.001953125 165.086914062 128.475585938 166 120.504882812 166 c 0
 73.705078125 166 38.4453125 144.099609375 38.4453125 100 c 0
116.495117188 -2 m 0
 90.884765625 -2 69.8134765625 5.3759765625 53.4951171875 17.2431640625 c 0
 18.44921875 65 l 0
 14.4970703125 76.3056640625 12.4951171875 88.2080078125 12.4951171875 100 c 0
 12.4951171875 137.318359375 31.607421875 165.73046875 72 180 c 0
 155 194 l 0
 201.026367188 183.083984375 227.504882812 144.627929688 227.504882812 98 c 0
 227.504882812 38 184.495117188 -2 116.495117188 -2 c 0
EndSplineSet
Validated: 1
EndChar

StartChar: percent
Encoding: 37 37 88
Width: 160
VWidth: 0
Flags: W
HStem: -28 18.6992<95.2419 122.756> 28.0996 23.0996<94.2868 123.653> 87 18.6992<40.2419 67.7562> 143.1 23.0996<39.2868 68.6531>
VStem: 13.2002 24.2002<106.636 142.214> 68.2002 24.2002<-8.36448 27.2136 105.948 142.471> 125.4 26.3994<-8.842 27.3336>
LayerCount: 2
Fore
SplineSet
92.400390625 9.3994140625 m 4
 92.400390625 -0.5 100.099609375 -9.30078125 108.900390625 -9.30078125 c 4
 117.700195312 -9.30078125 125.400390625 -0.5 125.400390625 9.3994140625 c 4
 125.400390625 19.2998046875 117.700195312 28.099609375 108.900390625 28.099609375 c 4
 100.099609375 28.099609375 92.400390625 19.2998046875 92.400390625 9.3994140625 c 4
68.2001953125 11.599609375 m 4
 68.2001953125 33.599609375 86.900390625 51.19921875 110 51.19921875 c 4
 133.099609375 51.19921875 151.799804688 33.599609375 151.799804688 11.599609375 c 4
 151.799804688 5.2626953125 150.249023438 -0.708984375 147.487304688 -6 c 4
 140.799804688 -15.228515625 l 4
 133.161132812 -23.0966796875 122.193359375 -28 110 -28 c 4
 86.900390625 -28 68.2001953125 -10.400390625 68.2001953125 11.599609375 c 4
37.400390625 124.399414062 m 0
 37.400390625 114.5 45.099609375 105.69921875 53.900390625 105.69921875 c 0
 62.7001953125 105.69921875 70.400390625 114.5 70.400390625 124.399414062 c 0
 70.400390625 134.299804688 62.7001953125 143.099609375 53.900390625 143.099609375 c 0
 45.099609375 143.099609375 37.400390625 134.299804688 37.400390625 124.399414062 c 0
13.2001953125 126.599609375 m 0
 13.2001953125 148.599609375 31.900390625 166.19921875 55 166.19921875 c 0
 78.099609375 166.19921875 96.7998046875 148.599609375 96.7998046875 126.599609375 c 0
 96.7998046875 120.262695312 95.2490234375 114.291015625 92.4873046875 109 c 0
 85.7998046875 99.771484375 l 0
 78.1611328125 91.9033203125 67.193359375 87 55 87 c 0
 31.900390625 87 13.2001953125 104.599609375 13.2001953125 126.599609375 c 0
40.4326171875 -0.5283203125 m 1
 37.1552734375 -4.1328125 19.091796875 -3.5205078125 19.091796875 4 c 1
 105 119 l 1
 114 124.857421875 120 126.436523438 129 119 c 1
 40.4326171875 -0.5283203125 l 1
EndSplineSet
Validated: 1
EndChar

StartChar: seven
Encoding: 55 55 89
Width: 240
VWidth: 0
Flags: W
HStem: 292 27<19.6666 159.003>
VStem: 21.0029 200
LayerCount: 2
Back
SplineSet
45.435546875 -0.5283203125 m 5
 42.158203125 -4.1328125 24.0947265625 -3.5205078125 24.0947265625 4 c 5
 123.002929688 316 l 5
 132.002929688 321.857421875 138.002929688 323.436523438 147.002929688 316 c 5
 45.435546875 -0.5283203125 l 5
EndSplineSet
Fore
SplineSet
21.0029296875 319 m 1
 172.002929688 319 l 1
 159.002929688 292 l 1
 21.0029296875 292 l 1
 17.498046875 302.751953125 19.30859375 310.846679688 21.0029296875 319 c 1
54.435546875 -0.5283203125 m 1
 51.158203125 -4.1328125 24.0947265625 -3.5205078125 24.0947265625 4 c 1
 188.002929688 319 l 1
 197.002929688 324.857421875 212.002929688 326.436523438 221.002929688 319 c 1
 54.435546875 -0.5283203125 l 1
EndSplineSet
Validated: 33
EndChar

StartChar: nine
Encoding: 57 57 90
Width: 240
VWidth: 0
Flags: W
HStem: -201 20<23.0491 179> 189 35<60.1407 169.454> 294.668 29.2227<67.6314 159.768>
VStem: 31 28<232.238 286.367> 171 27.7861<229.643 277.65> 193 24<-201 216>
LayerCount: 2
Fore
SplineSet
24 -181 m 5xf0
 179 -181 l 5
 180 -201 l 1
 25 -201 l 1
 22.3330078125 -191.666992188 21.3330078125 -190.333007812 24 -181 c 5xf0
193 216 m 1xf4
 217 216 l 1
 217 -201 l 1
 193 -201 l 1
 193 216 l 1xf4
59 250 m 0
 59 222.217773438 81.515625 224 111 224 c 0
 140.483398438 224 171 222.217773438 171 250 c 0xf8
 171 260.095703125 171.750976562 270.571289062 167 278 c 0
 115 293 l 0
 110.587890625 294.092773438 105.845703125 294.66796875 100.825195312 294.66796875 c 0
 71.3408203125 294.66796875 59 277.783203125 59 250 c 0
115 189 m 0
 98.865234375 189 67.1103515625 199.387695312 56.8291015625 206.86328125 c 0
 34.7509765625 236.950195312 l 0
 32.2607421875 244.072265625 31 251.571289062 31 259 c 0
 31 290.5 54.3095703125 323.890625 99.669921875 323.890625 c 0
 145.029296875 323.890625 196.1953125 319 198.786132812 257.849609375 c 0
 201.280273438 199 157.83984375 189 115 189 c 0
EndSplineSet
Validated: 33
EndChar

StartChar: bracketleft
Encoding: 91 91 91
Width: 80
VWidth: 0
Flags: W
HStem: 0 22<8.26428 71.8985> 297 22<9.26984 68.8985>
VStem: 9.99902 27.9736<25.7444 291.5>
LayerCount: 2
Fore
SplineSet
9.9990234375 22 m 5
 59.93359375 22.1357421875 22.2265625 23.4169921875 70 24 c 5
 73.296875 24 72.5478515625 -1 70 -1 c 5
 10 0 l 5
 6.7021484375 0 7.451171875 22 9.9990234375 22 c 5
10 319 m 5
 59.8662109375 319 17.1337890625 318 67 318 c 5
 70.296875 318 69.5478515625 293 67 293 c 5
 49.67578125 295.920898438 30.9462890625 298.129882812 10.9990234375 297 c 5
 7.701171875 297 7.4521484375 319 10 319 c 5
9.9990234375 27 m 13
 9.9990234375 288 l 5
 7.611328125 291.649414062 29.255859375 293.8515625 36.9873046875 290 c 5
 37.97265625 27 l 21
 28.6484375 23.611328125 19.3232421875 25.1533203125 9.9990234375 27 c 13
EndSplineSet
Validated: 33
EndChar

StartChar: bracketright
Encoding: 93 93 92
Width: 80
VWidth: 0
Flags: W
HStem: -1 25<8.1005 71.7347> 293 25<11.1005 70.7292>
VStem: 42.0264 27.9736<25.7444 291.5>
LayerCount: 2
Fore
SplineSet
70 22 m 5
 72.5478515625 22 73.296875 0 69.9990234375 0 c 5
 9.9990234375 -1 l 5
 7.451171875 -1 6.7021484375 24 9.9990234375 24 c 5
 57.7724609375 23.4169921875 20.0654296875 22.1357421875 70 22 c 5
69.9990234375 319 m 5
 72.546875 319 72.2978515625 297 69 297 c 5
 49.052734375 298.129882812 30.3232421875 295.920898438 12.9990234375 293 c 5
 10.451171875 293 9.7021484375 318 12.9990234375 318 c 5
 62.865234375 318 20.1328125 319 69.9990234375 319 c 5
70 27 m 21
 60.67578125 25.1533203125 51.3505859375 23.611328125 42.0263671875 27 c 13
 43.01171875 290 l 5
 50.7431640625 293.8515625 72.3876953125 291.649414062 70 288 c 5
 70 27 l 21
EndSplineSet
Validated: 33
EndChar

StartChar: backslash
Encoding: 92 92 93
Width: 160
VWidth: 0
Flags: W
VStem: 19.0918 122.908
LayerCount: 2
Fore
SplineSet
120.659179688 -0.5283203125 m 5
 19.091796875 316 l 5
 28.091796875 323.436523438 34.091796875 321.857421875 43.091796875 316 c 5
 142 4 l 5
 142 -3.5205078125 123.936523438 -4.1328125 120.659179688 -0.5283203125 c 5
EndSplineSet
Validated: 1
EndChar

StartChar: ampersand
Encoding: 38 38 94
Width: 200
VWidth: 0
Flags: HW
HStem: 0 25.5488<87.9702 188.696> 174 25<49.5385 191.461> 294 25.5488<87.1991 188.696>
VStem: 11.3096 30.2402<80.202 238.079> 121 34<29 169.647>
LayerCount: 2
Fore
SplineSet
121 169 m 1
 132.333007812 170.333007812 143.666992188 170.333007812 155 169 c 1
 155 29 l 5
 121 29 l 5
 121 169 l 1
51 199 m 1
 96.3330078125 199 144.666992188 199 190 199 c 1
 192.997070312 190.666992188 192.31640625 182.333007812 190 174 c 1
 111 174 l 0
 51 174 l 1
 48.001953125 182.333007812 48.68359375 190.666992188 51 199 c 1
120.309570312 0 m 0
 60.3095703125 0 11.3095703125 66.650390625 11.3095703125 158 c 0
 11.3095703125 194.6015625 19.015625 228.506835938 32.1123046875 256 c 0
 57.3095703125 293.948242188 l 0
 74.814453125 312.811523438 96.169921875 319.548828125 119.309570312 319.548828125 c 0
 179.309570312 319.548828125 157.502929688 320 188.696289062 320 c 25
 188.696289062 293 l 25
 157.502929688 293 162.509765625 294 119.309570312 294 c 0
 76.109375 294 41.5498046875 235.282226562 41.5498046875 158 c 0
 41.5498046875 80.7177734375 77.109375 25.548828125 120.309570312 25.548828125 c 0
 140.203125 25.548828125 158.502929688 25 188.696289062 25 c 25
 188.696289062 0 l 25
 158.502929688 0 180.309570312 0 120.309570312 0 c 0
EndSplineSet
EndChar

StartChar: asciitilde
Encoding: 126 126 95
Width: 230
VWidth: 0
Flags: HW
LayerCount: 2
Back
SplineSet
127.265625 248.65234375 m 4
 136.34765625 263.802734375 145.931640625 280.389648438 155.0859375 297 c 4
 174.422851562 332.083984375 232.842773438 354.181640625 278.400390625 328.196289062 c 4
 299.891601562 315.938476562 316.934570312 290.41796875 316.58984375 258.6796875 c 5
 294.249023438 258.6796875 l 5
 293.939453125 271.600585938 290.217773438 282.11328125 284.916015625 290.420898438 c 5
 249.63671875 315.041992188 l 6
 246.268554688 317.392578125 236.971679688 318.055664062 231.63671875 317.16015625 c 4
 216.73046875 314.66015625 194.059570312 310.604492188 184.4375 301.892578125 c 4
 163.489257812 282.92578125 152.4375 255.892578125 142.649414062 239.056640625 c 4
 121.998046875 203.53515625 60.6630859375 184.7265625 19.1220703125 214.794921875 c 5
 -8.9140625 253 l 6
 -12.15234375 257.413085938 -14.560546875 272.051757812 -13.654296875 279 c 5
 7.1123046875 279 l 5
 7.984375 219.893554688 96.921875 198.038085938 127.265625 248.65234375 c 4
EndSplineSet
Fore
SplineSet
95.8505859375 238.978515625 m 4
 101.6640625 251.098632812 107.796875 264.368164062 113.65625 277.65625 c 4
 126.03125 305.723632812 163.419921875 323.401367188 192.577148438 302.61328125 c 4
 206.33203125 292.806640625 217.23828125 272.390625 217.018554688 247 c 5
 202.719726562 247 l 5
 202.522460938 257.336914062 200.140625 265.747070312 196.747070312 272.392578125 c 5
 178.607421875 296.17578125 l 6
 176.452148438 298.056640625 170.501953125 298.586914062 167.086914062 297.870117188 c 4
 157.546875 295.870117188 143.038085938 292.625976562 136.879882812 285.65625 c 4
 123.47265625 270.482421875 119.400390625 248.513671875 113.13671875 235.044921875 c 4
 99.9189453125 206.627929688 60.6650390625 191.581054688 34.078125 215.635742188 c 5
 16.1357421875 246.200195312 l 6
 14.0625 249.73046875 12.5224609375 261.44140625 13.1015625 267 c 5
 26.392578125 267 l 5
 26.951171875 219.71484375 76.4306640625 198.486328125 95.8505859375 238.978515625 c 4
EndSplineSet
EndChar

StartChar: underscore
Encoding: 95 95 96
Width: 130
VWidth: 0
Flags: HW
LayerCount: 2
Fore
SplineSet
12.5 22 m 5
 62.3662109375 22 67.833984375 22 117.700195312 22 c 5
 120.997070312 22 120.047851562 0 117.5 0 c 5
 12.2998046875 0 l 5
 9.001953125 0 9.9521484375 22 12.5 22 c 5
EndSplineSet
EndChar

StartChar: grave
Encoding: 96 96 97
Width: 90
VWidth: 0
Flags: HW
LayerCount: 2
Fore
SplineSet
49.400390625 453 m 5
 78 389.700195312 l 25
 57.099609375 375.400390625 l 25
 12 436.5 l 5
 24.466796875 443.686523438 36.93359375 448.43359375 49.400390625 453 c 5
EndSplineSet
EndChar

StartChar: asterisk
Encoding: 42 42 98
Width: 165
VWidth: 0
Flags: HW
LayerCount: 2
Fore
SplineSet
58.3037109375 97 m 1
 60.71484375 95.7255859375 61.701171875 96.6025390625 65.3037109375 93 c 0
 66.3037109375 92 68.3037109375 86 68.3037109375 84 c 1
 38 -2 l 1
 28.7001953125 7 l 0
 18.5517578125 19.21875 l 1
 58.3037109375 97 l 1
114.303710938 97 m 1
 153.848632812 19.21875 l 1
 143.700195312 7 l 0
 135 -2 l 1
 103.303710938 84 l 1
 103.303710938 86 105.303710938 92 106.303710938 93 c 0
 109.905273438 96.6025390625 111.892578125 95.7255859375 114.303710938 97 c 1
94.244140625 90 m 2
 100 0 l 1
 86.400390625 -2 l 0
 70.400390625 0 l 1
 75.603515625 88.0419921875 l 1
 75.603515625 94.013671875 82.01171875 95 86.001953125 95 c 0
 89.2001953125 95 93.9013671875 95.0068359375 94.244140625 90 c 2
110 134 m 1
 107.588867188 135.274414062 106.602539062 134.397460938 103 138 c 0
 102 139 100 145 100 147 c 1
 128.59375 224.106445312 l 1
 140 214 l 0
 150.1484375 201.78125 l 1
 110 134 l 1
54 134 m 1
 14.8515625 201.78125 l 1
 25 214 l 0
 36.40625 224.106445312 l 1
 65 147 l 1
 65 145 63 139 62 138 c 0
 58.3984375 134.397460938 56.4111328125 135.274414062 54 134 c 1
15 98 m 1
 16 125 l 1
 82 117 l 1
 150 124 l 1
 150 97 l 1
 83 103 l 1
 15 98 l 1
74.7578125 134 m 2
 68.7001953125 221 l 1
 82.2998046875 223 l 0
 98.2998046875 221 l 1
 93.3984375 135.958007812 l 1
 93.3984375 129.986328125 86.990234375 129 83 129 c 0
 79.8017578125 129 75.197265625 129 74.7578125 134 c 2
EndSplineSet
EndChar

StartChar: exclamdown
Encoding: 161 161 99
Width: 100
VWidth: 0
Flags: HW
LayerCount: 2
Fore
SplineSet
38 263.580078125 m 4xa0
 38 307.6796875 30.9404296875 357.580078125 30.9404296875 363.580078125 c 4
 30.9404296875 369.580078125 37.9404296875 370.580078125 44.9404296875 370.580078125 c 4
 51.9404296875 370.580078125 66.9404296875 364.580078125 66.9404296875 348.580078125 c 4xc0
 66.9404296875 332.580078125 63.9501953125 275.372070312 63.9501953125 263.580078125 c 4
 63.9501953125 213.580078125 66 96.580078125 67 -20.419921875 c 5
 40 7.580078125 l 5
 39 112.580078125 38 219.48046875 38 263.580078125 c 4xa0
70.5703125 435.780273438 m 4
 70.5703125 423.680664062 60.890625 414 50 414 c 4
 39.109375 414 29.4296875 423.680664062 29.4296875 435.780273438 c 4
 29.4296875 447.879882812 39.109375 457.560546875 50 457.560546875 c 4
 60.890625 457.560546875 70.5703125 447.879882812 70.5703125 435.780273438 c 4
EndSplineSet
EndChar

StartChar: cent
Encoding: 162 162 100
Width: 190
VWidth: 0
Flags: HW
LayerCount: 2
Fore
SplineSet
170 25 m 5
 171.831369759 16.8466471545 173.811570859 8.75150443702 169 -2 c 5
 149 -2 184.990234375 -2 116.990234375 -2 c 4
 91.3798828125 -2 70.30859375 5.3759765625 53.990234375 17.2431640625 c 4
 18.9443359375 65 l 4
 14.9921875 76.3056640625 12.990234375 88.2080078125 12.990234375 100 c 4
 12.990234375 150 50.259765625 201.400390625 122.259765625 201.400390625 c 4
 194.259765625 201.400390625 128.259765625 201.400390625 166.259765625 201.400390625 c 5
 167.999023438 193.067382812 170.147460938 184.733398438 165.259765625 176.400390625 c 13
 127.259765625 177.400390625 129.970703125 177 122 177 c 4
 75.2001953125 177 38.9404296875 144.099609375 38.9404296875 100 c 4
 38.9404296875 55.900390625 74.0400390625 24.400390625 120.83984375 24.400390625 c 4
 167.640625 24.400390625 165 25 170 25 c 5
EndSplineSet
EndChar

StartChar: acute
Encoding: 180 180 101
Width: 90
VWidth: 0
Flags: HW
LayerCount: 2
Back
SplineSet
-19.779296875 68.4716796875 m 1
 -23.056640625 64.8671875 -41.12109375 65.4794921875 -41.12109375 73 c 1
 12.455078125 242 l 5
 25.4521484375 283 l 5
 57.787109375 385 l 1
 66.787109375 390.857421875 72.787109375 392.436523438 81.787109375 385 c 1
 47.1328125 277 l 5
 33.9765625 236 l 5
 -19.779296875 68.4716796875 l 1
EndSplineSet
Fore
SplineSet
40.599609375 453 m 5
 53.06640625 448.43359375 65.533203125 443.686523438 78 436.5 c 5
 32.900390625 375.400390625 l 25
 12 389.700195312 l 25
 40.599609375 453 l 5
EndSplineSet
EndChar

StartChar: dotlessi
Encoding: 305 305 102
Width: 60
VWidth: 0
Flags: HW
AnchorPoint: "top" 28 204 basechar 0
AnchorPoint: "bottom" 26 -4 basechar 0
LayerCount: 2
Fore
SplineSet
40.9404296875 100 m 0
 40.9404296875 55.900390625 43 14 43 8 c 0
 43 2 35 -6 28 -6 c 0
 21 -6 12 -6 12 10 c 0
 12 26 14.990234375 88.2080078125 14.990234375 100 c 0
 14.990234375 150 15 83 14 200 c 5
 23 203.514648438 32 204.461914062 41 200 c 5
 40 94 40.9404296875 144.099609375 40.9404296875 100 c 0
EndSplineSet
EndChar

StartChar: acutecomb
Encoding: 769 769 103
Width: 90
VWidth: 0
Flags: HW
AnchorPoint: "top" 58 341 mark 0
LayerCount: 2
Fore
SplineSet
40.599609375 453 m 5
 53.06640625 448.43359375 65.533203125 443.686523438 78 436.5 c 5
 32.900390625 375.400390625 l 25
 12 389.700195312 l 25
 40.599609375 453 l 5
EndSplineSet
EndChar

StartChar: gravecomb
Encoding: 768 768 104
Width: 90
VWidth: 0
Flags: HW
AnchorPoint: "top" 32 341 mark 0
LayerCount: 2
Fore
SplineSet
49.400390625 453 m 5
 78 389.700195312 l 25
 57.099609375 375.400390625 l 25
 12 436.5 l 5
 24.466796875 443.686523438 36.93359375 448.43359375 49.400390625 453 c 5
EndSplineSet
EndChar

StartChar: tildecomb
Encoding: 771 771 125
Width: 230
VWidth: 0
Flags: HW
AnchorPoint: "top" 123 182 mark 0
LayerCount: 2
Fore
SplineSet
95.1943359375 250.322265625 m 0
 101.0078125 262.442382812 107.140625 275.711914062 113 289 c 0
 125.375 317.067382812 165.569224476 331.422695226 194.7265625 310.634765625 c 0
 208.481445312 300.828125 217.23828125 272.390625 217.018554688 247 c 1
 202.719726562 247 l 1
 202.522460938 257.336914062 200.140625 265.747070312 196.747070312 272.392578125 c 1
 178 293 l 2
 176.087783365 295.101974029 161.415039062 296.715820312 158 296 c 0
 148.459960938 294 146.158247067 290.969687736 140 284 c 4
 126.592773438 268.826171875 119.401321385 248.513238984 113.13671875 235.044921875 c 0
 99.9189453125 206.627929688 60.5869140625 188.9453125 34 213 c 1
 16.1357421875 246.200195312 l 2
 14.1971749703 249.802965207 14.671875 269.462890625 15.2509765625 275.021484375 c 1
 28.5419921875 275.021484375 l 1
 29.1005859375 227.736328125 75.7744140625 209.830078125 95.1943359375 250.322265625 c 0
EndSplineSet
EndChar

StartChar: uni0302
Encoding: 770 770 131
Width: 129
VWidth: 0
Flags: HW
AnchorPoint: "top" 65 200 mark 0
LayerCount: 2
Fore
SplineSet
9.068359375 248 m 5
 20.169921875 270.297851562 29.66015625 288.881835938 40.740234375 309 c 5
 42.287109375 311.629882812 52.740234375 314 55.740234375 314 c 4
 57.1552734375 314 58.2587890625 311 59.259765625 308 c 4
 60.857421875 303.208007812 61.740234375 302 60.509765625 298 c 5
 52.560546875 279.453125 43.5234375 258.659179688 34.533203125 238 c 5
 32.740234375 238 11.740234375 246 9.068359375 248 c 5
94.59765625 232 m 5
 84.755859375 254.608398438 72.458984375 285.655273438 63.740234375 306 c 5
 66.740234375 311 76.58984375 313 83.509765625 313 c 5
 99.2587890625 293 108.11328125 266.904296875 119.931640625 243 c 5
 118.740234375 242 96.740234375 232 94.59765625 232 c 5
EndSplineSet
EndChar

StartChar: asciicircum
Encoding: 94 94 132
Width: 129
VWidth: 0
Flags: HW
LayerCount: 2
Fore
SplineSet
9.068359375 248 m 1
 20.169921875 270.297851562 29.66015625 288.881835938 40.740234375 309 c 1
 42.287109375 311.629882812 52.740234375 314 55.740234375 314 c 0
 57.1552734375 314 58.2587890625 311 59.259765625 308 c 0
 60.857421875 303.208007812 61.740234375 302 60.509765625 298 c 1
 52.560546875 279.453125 43.5234375 258.659179688 34.533203125 238 c 1
 32.740234375 238 11.740234375 246 9.068359375 248 c 1
94.59765625 232 m 1
 84.755859375 254.608398438 72.458984375 285.655273438 63.740234375 306 c 1
 66.740234375 311 76.58984375 313 83.509765625 313 c 1
 99.2587890625 293 108.11328125 266.904296875 119.931640625 243 c 1
 118.740234375 242 96.740234375 232 94.59765625 232 c 1
EndSplineSet
EndChar

StartChar: uni030A
Encoding: 778 778 146
Width: 250
VWidth: 0
Flags: HW
AnchorPoint: "top" 125 304 mark 0
LayerCount: 2
Fore
SplineSet
101.959960938 389.958984375 m 0
 101.959960938 377 112.040039062 365.48046875 123.559570312 365.48046875 c 0
 135.080078125 365.48046875 145.16015625 377 145.16015625 389.958984375 c 0
 145.16015625 402.919921875 135.080078125 414.439453125 123.559570312 414.439453125 c 0
 112.040039062 414.439453125 101.959960938 402.919921875 101.959960938 389.958984375 c 0
70.2802734375 392.83984375 m 0
 70.2802734375 421.639648438 94.759765625 444.6796875 125 444.6796875 c 0
 155.240234375 444.6796875 179.719726562 421.639648438 179.719726562 392.83984375 c 0
 179.719726562 384.543945312 177.688476562 376.7265625 174.07421875 369.799804688 c 0
 165.319335938 357.71875 l 2
 156.108398438 348.231445312 142.765625 341 125 341 c 0
 94.759765625 341 70.2802734375 364.040039062 70.2802734375 392.83984375 c 0
EndSplineSet
EndChar

StartChar: questiondown
Encoding: 191 191 147
Width: 221
VWidth: 0
Flags: HW
LayerCount: 2
Fore
SplineSet
132 -4.0625 m 4xc8
 71.009765625 -2.9638671875 22 41.9375 22 97.9375 c 4
 22 153.9375 71.302734375 206.006835938 132 199.9375 c 4
 142 198.9375 150.666992188 195.9375 158 190.9375 c 13
 162 165.9375 l 5
 132 167.9375 l 4
 86 167.9375 49 136.9375 49 97.9375 c 4
 49 58.9375 86 27.9375 132 27.9375 c 4
 166 26.9375 l 5
 166 -4.0625 l 5
 140.868164062 -4.158203125 l 4
 138.56640625 -4.158203125 135.66015625 -4.12890625 132 -4.0625 c 4xc8
129.8984375 206.9375 m 5
 128 361.9375 l 6
 127.950195312 367.935546875 134 373.9375 141 373.9375 c 4
 148 373.9375 156 370.9375 156 362.9375 c 4
 156 208.9375 l 5xd8
 151.944335938 195.583007812 130.567382812 208.856445312 129.8984375 206.9375 c 5
162.8125 437.137695312 m 4xe8
 162.8125 423.828125 152.165039062 413.1796875 140.185546875 413.1796875 c 4
 128.206054688 413.1796875 117.55859375 423.828125 117.55859375 437.137695312 c 4
 117.55859375 450.447265625 128.206054688 461.095703125 140.185546875 461.095703125 c 4
 152.165039062 461.095703125 162.8125 450.447265625 162.8125 437.137695312 c 4xe8
EndSplineSet
EndChar

StartChar: uni0308
Encoding: 776 776 148
Width: 129
VWidth: 0
Flags: HW
AnchorPoint: "top" 65 200 mark 0
LayerCount: 2
Fore
SplineSet
84 258 m 4
 84 268 92 276 101 276 c 4
 110 276 118 268 118 258 c 4
 118 248 110 240 101 240 c 4
 92 240 84 248 84 258 c 4
11 258 m 0
 11 268 19 276 28 276 c 0
 37 276 45 268 45 258 c 0
 45 248 37 240 28 240 c 0
 19 240 11 248 11 258 c 0
EndSplineSet
EndChar

